<svg width="21" height="20" viewBox="0 0 21 20" fill="none" xmlns="http://www.w3.org/2000/svg">
<path d="M13.0004 10L13.4706 10.4702C13.5953 10.3455 13.6654 10.1764 13.6654 10C13.6654 9.82363 13.5953 9.65449 13.4706 9.52977L13.0004 10ZM9.66703 1.835C9.29976 1.835 9.00203 2.13273 9.00203 2.5C9.00203 2.86727 9.29976 3.165 9.66703 3.165V1.835ZM9.66703 16.835C9.29976 16.835 9.00203 17.1327 9.00203 17.5C9.00203 17.8673 9.29976 18.165 9.66703 18.165V16.835ZM17.8181 16.59L17.2255 16.2881L17.8181 16.59ZM17.0897 17.3183L17.3916 17.9109H17.3916L17.0897 17.3183ZM17.0897 2.68166L17.3916 2.08914L17.3916 2.08914L17.0897 2.68166ZM17.8181 3.41002L18.4106 3.10811V3.10811L17.8181 3.41002ZM10.1373 13.8036L13.4706 10.4702L12.5301 9.52977L9.19681 12.8631L10.1373 13.8036ZM13.4706 9.52977L10.1373 6.19644L9.19681 7.13689L12.5301 10.4702L13.4706 9.52977ZM13.0004 9.335H3.00037V10.665H13.0004V9.335ZM9.66703 3.165H15.333V1.835H9.66703V3.165ZM17.3347 5.16667V14.8333H18.6647V5.16667H17.3347ZM15.333 16.835H9.66703V18.165H15.333V16.835ZM17.3347 14.8333C17.3347 15.311 17.3342 15.6293 17.3142 15.8738C17.2949 16.1106 17.2606 16.2192 17.2255 16.2881L18.4106 16.8919C18.5571 16.6043 18.6137 16.3012 18.6398 15.9821C18.6652 15.6709 18.6647 15.2891 18.6647 14.8333H17.3347ZM15.333 18.165C15.7888 18.165 16.1706 18.1655 16.4819 18.1401C16.8009 18.114 17.104 18.0574 17.3916 17.9109L16.7878 16.7258C16.7189 16.7609 16.6104 16.7952 16.3736 16.8145C16.129 16.8345 15.8107 16.835 15.333 16.835V18.165ZM17.2255 16.2881C17.1295 16.4766 16.9763 16.6298 16.7878 16.7258L17.3916 17.9109C17.8303 17.6873 18.187 17.3306 18.4106 16.8919L17.2255 16.2881ZM15.333 3.165C15.8107 3.165 16.129 3.16552 16.3736 3.1855C16.6104 3.20485 16.7189 3.23907 16.7878 3.27418L17.3916 2.08914C17.104 1.94258 16.8009 1.88598 16.4819 1.85992C16.1706 1.83448 15.7888 1.835 15.333 1.835V3.165ZM18.6647 5.16667C18.6647 4.71093 18.6652 4.32913 18.6398 4.01785C18.6137 3.69881 18.5571 3.39574 18.4106 3.10811L17.2255 3.71192C17.2606 3.78081 17.2949 3.88936 17.3142 4.12616C17.3342 4.37071 17.3347 4.68898 17.3347 5.16667H18.6647ZM16.7878 3.27417C16.9763 3.37021 17.1295 3.52344 17.2255 3.71192L18.4106 3.10811C18.187 2.66938 17.8303 2.31268 17.3916 2.08914L16.7878 3.27417Z" fill="#1B1E25"/>
</svg>
