<svg width="25" height="24" viewBox="0 0 25 24" fill="none" xmlns="http://www.w3.org/2000/svg">
<g id="book">
<path id="Icon" d="M4.5 19V6.2C4.5 5.0799 4.5 4.51984 4.71799 4.09202C4.90973 3.71569 5.21569 3.40973 5.59202 3.21799C6.01984 3 6.5799 3 7.7 3H17.3C18.4201 3 18.9802 3 19.408 3.21799C19.7843 3.40973 20.0903 3.71569 20.282 4.09202C20.5 4.51984 20.5 5.0799 20.5 6.2V17H6.5C5.39543 17 4.5 17.8954 4.5 19ZM4.5 19C4.5 20.1046 5.39543 21 6.5 21H20.5M9.5 7H15.5M9.5 11H15.5M19.5 17V21" stroke="#1B1E25" stroke-width="1.5" stroke-linecap="round" stroke-linejoin="round"/>
</g>
</svg>
