<svg width="170" height="48" viewBox="0 0 170 48" fill="none" xmlns="http://www.w3.org/2000/svg">
<g filter="url(#filter0_d_369_3859)">
<rect x="2" y="1" width="165.5" height="44" rx="22" fill="white"/>
<rect x="2.5" y="1.5" width="164.5" height="43" rx="21.5" stroke="#C9CDD2"/>
<path d="M62.1665 17.5836L64.5235 19.9406M60.0833 30.4997H66.75M51.75 30.5L51.7895 30.2232C51.9295 29.2438 51.9994 28.754 52.1586 28.2968C52.2998 27.8911 52.4927 27.5052 52.7325 27.1488C53.0028 26.7472 53.3527 26.3974 54.0523 25.6977L63.7589 15.9911C64.4098 15.3402 65.4651 15.3402 66.116 15.9911C66.7668 16.642 66.7668 17.6972 66.116 18.3481L56.2312 28.2329C55.5965 28.8676 55.2791 29.1849 54.9177 29.4373C54.5968 29.6613 54.2508 29.8469 53.8866 29.9902C53.4764 30.1517 53.0365 30.2405 52.1566 30.418L51.75 30.5Z" stroke="#1B1E25" stroke-width="1.33" stroke-linecap="round" stroke-linejoin="round"/>
<path d="M82.6846 23.2832V21.9136H84.1055C84.7109 21.9136 85.2017 21.7524 85.5776 21.4302C85.9585 21.1079 86.1489 20.6929 86.1489 20.1851C86.1489 19.6772 85.9707 19.2769 85.6143 18.9839C85.2627 18.6909 84.7842 18.5444 84.1787 18.5444C83.5635 18.5444 83.0654 18.6958 82.6846 18.9985C82.3086 19.2964 82.0962 19.709 82.0474 20.2363H80.4946C80.5483 19.2891 80.9097 18.542 81.5786 17.9951C82.2476 17.4482 83.1313 17.1748 84.23 17.1748C85.27 17.1748 86.1196 17.4409 86.7788 17.9731C87.438 18.5005 87.7676 19.1816 87.7676 20.0166C87.7676 20.6074 87.5845 21.1274 87.2183 21.5767C86.8569 22.021 86.3833 22.314 85.7974 22.4556V22.5142C86.5054 22.6021 87.0645 22.8804 87.4746 23.3491C87.8848 23.8179 88.0898 24.4111 88.0898 25.1289C88.0898 26.0176 87.7188 26.7622 86.9766 27.3628C86.2344 27.9585 85.3091 28.2563 84.2007 28.2563C83.0532 28.2563 82.1157 27.9731 81.3882 27.4067C80.6606 26.8403 80.2725 26.0908 80.2236 25.1582H81.8057C81.8545 25.6758 82.0938 26.0908 82.5234 26.4033C82.958 26.7109 83.5146 26.8647 84.1934 26.8647C84.8525 26.8647 85.3848 26.6963 85.79 26.3594C86.2002 26.0225 86.4053 25.5854 86.4053 25.0483C86.4053 24.4966 86.2051 24.0645 85.8047 23.752C85.4092 23.4395 84.8574 23.2832 84.1494 23.2832H82.6846ZM92.1841 26.8794C92.7407 26.8794 93.207 26.7109 93.583 26.374C93.9639 26.0322 94.1543 25.6123 94.1543 25.1143V24.5063L92.2573 24.6235C91.7837 24.6577 91.4175 24.7749 91.1587 24.9751C90.9048 25.1704 90.7778 25.4341 90.7778 25.7661C90.7778 26.103 90.9048 26.374 91.1587 26.5791C91.4175 26.7793 91.7593 26.8794 92.1841 26.8794ZM91.7446 28.1318C90.9878 28.1318 90.3701 27.917 89.8916 27.4873C89.418 27.0576 89.1812 26.4985 89.1812 25.8101C89.1812 25.1362 89.4302 24.6016 89.9282 24.2061C90.4263 23.8057 91.1318 23.5811 92.0449 23.5322L94.1543 23.4077V22.8145C94.1543 22.3848 94.0176 22.0503 93.7441 21.811C93.4707 21.5669 93.0923 21.4448 92.6089 21.4448C92.1597 21.4448 91.7935 21.5449 91.5103 21.7451C91.2319 21.9453 91.0562 22.2212 90.9829 22.5728H89.4888C89.5327 21.8599 89.8403 21.2788 90.4116 20.8296C90.9829 20.3804 91.7349 20.1558 92.6675 20.1558C93.6001 20.1558 94.3423 20.3853 94.894 20.8442C95.4507 21.3032 95.729 21.9185 95.729 22.6899V28H94.2129V26.7329H94.1763C93.9565 27.1577 93.6221 27.4971 93.1729 27.751C92.7285 28.0049 92.2524 28.1318 91.7446 28.1318ZM103.969 22.7632H102.445C102.338 22.3823 102.133 22.0723 101.83 21.833C101.527 21.5938 101.142 21.4741 100.673 21.4741C100.062 21.4741 99.5718 21.7183 99.2007 22.2065C98.8345 22.6899 98.6514 23.3369 98.6514 24.1475C98.6514 24.9775 98.8345 25.6318 99.2007 26.1104C99.5718 26.584 100.067 26.8208 100.688 26.8208C101.151 26.8208 101.535 26.7109 101.837 26.4912C102.14 26.2666 102.348 25.9517 102.46 25.5464H103.983C103.871 26.3276 103.515 26.9575 102.914 27.436C102.318 27.9097 101.571 28.1465 100.673 28.1465C99.5645 28.1465 98.6831 27.7876 98.0288 27.0698C97.3745 26.3521 97.0474 25.3779 97.0474 24.1475C97.0474 22.9365 97.3745 21.9697 98.0288 21.2471C98.688 20.5195 99.5645 20.1558 100.658 20.1558C101.571 20.1558 102.321 20.4048 102.907 20.9028C103.498 21.396 103.852 22.0161 103.969 22.7632ZM107.96 26.8794C108.517 26.8794 108.983 26.7109 109.359 26.374C109.74 26.0322 109.931 25.6123 109.931 25.1143V24.5063L108.034 24.6235C107.56 24.6577 107.194 24.7749 106.935 24.9751C106.681 25.1704 106.554 25.4341 106.554 25.7661C106.554 26.103 106.681 26.374 106.935 26.5791C107.194 26.7793 107.536 26.8794 107.96 26.8794ZM107.521 28.1318C106.764 28.1318 106.146 27.917 105.668 27.4873C105.194 27.0576 104.958 26.4985 104.958 25.8101C104.958 25.1362 105.207 24.6016 105.705 24.2061C106.203 23.8057 106.908 23.5811 107.821 23.5322L109.931 23.4077V22.8145C109.931 22.3848 109.794 22.0503 109.521 21.811C109.247 21.5669 108.869 21.4448 108.385 21.4448C107.936 21.4448 107.57 21.5449 107.287 21.7451C107.008 21.9453 106.833 22.2212 106.759 22.5728H105.265C105.309 21.8599 105.617 21.2788 106.188 20.8296C106.759 20.3804 107.511 20.1558 108.444 20.1558C109.376 20.1558 110.119 20.3853 110.67 20.8442C111.227 21.3032 111.505 21.9185 111.505 22.6899V28H109.989V26.7329H109.953C109.733 27.1577 109.398 27.4971 108.949 27.751C108.505 28.0049 108.029 28.1318 107.521 28.1318ZM116.061 25.1655H116.024L114.318 28H112.604L115.146 24.1548L112.641 20.2949H114.413L116.098 23.0854H116.127L117.79 20.2949H119.533L117.006 24.1035L119.503 28H117.76L116.061 25.1655Z" fill="#1B1E25"/>
</g>
<defs>
<filter id="filter0_d_369_3859" x="0" y="0" width="169.5" height="48" filterUnits="userSpaceOnUse" color-interpolation-filters="sRGB">
<feFlood flood-opacity="0" result="BackgroundImageFix"/>
<feColorMatrix in="SourceAlpha" type="matrix" values="0 0 0 0 0 0 0 0 0 0 0 0 0 0 0 0 0 0 127 0" result="hardAlpha"/>
<feOffset dy="1"/>
<feGaussianBlur stdDeviation="1"/>
<feColorMatrix type="matrix" values="0 0 0 0 0.0509804 0 0 0 0 0.0627451 0 0 0 0 0.0901961 0 0 0 0.06 0"/>
<feBlend mode="normal" in2="BackgroundImageFix" result="effect1_dropShadow_369_3859"/>
<feBlend mode="normal" in="SourceGraphic" in2="effect1_dropShadow_369_3859" result="shape"/>
</filter>
</defs>
</svg>
