<svg width="16" height="16" viewBox="0 0 16 16" fill="none" xmlns="http://www.w3.org/2000/svg">
<path fill-rule="evenodd" clip-rule="evenodd" d="M7.99998 14.6668C11.6819 14.6668 14.6666 11.6821 14.6666 8.00016C14.6666 4.31826 11.6819 1.3335 7.99998 1.3335C4.31808 1.3335 1.33331 4.31826 1.33331 8.00016C1.33331 11.6821 4.31808 14.6668 7.99998 14.6668ZM6.47138 5.52876C6.21103 5.26841 5.78892 5.26841 5.52858 5.52876C5.26823 5.78911 5.26823 6.21122 5.52858 6.47157L7.05717 8.00016L5.52858 9.52876C5.26823 9.78911 5.26823 10.2112 5.52858 10.4716C5.78892 10.7319 6.21103 10.7319 6.47138 10.4716L7.99998 8.94297L9.52858 10.4716C9.78893 10.7319 10.211 10.7319 10.4714 10.4716C10.7317 10.2112 10.7317 9.78911 10.4714 9.52876L8.94279 8.00016L10.4714 6.47157C10.7317 6.21122 10.7317 5.78911 10.4714 5.52876C10.211 5.26841 9.78893 5.26841 9.52858 5.52876L7.99998 7.05735L6.47138 5.52876Z" fill="#94979E"/>
</svg>
