<svg width="24" height="24" viewBox="0 0 24 24" fill="none" xmlns="http://www.w3.org/2000/svg">
<g id="circle-question">
<path id="Icon" d="M11.4367 12.2197C11.1438 12.5126 11.1438 12.9874 11.4367 13.2803C11.7296 13.5732 12.2044 13.5732 12.4973 13.2803L11.4367 12.2197ZM11.967 15C11.5528 15 11.217 15.3358 11.217 15.75C11.217 16.1642 11.5528 16.5 11.967 16.5V15ZM11.977 16.5C12.3912 16.5 12.727 16.1642 12.727 15.75C12.727 15.3358 12.3912 15 11.977 15V16.5ZM13.217 10.25C13.217 10.5179 13.1204 10.7108 12.8212 10.9996C12.659 11.1561 12.4686 11.3109 12.2218 11.5162C11.9844 11.7137 11.7123 11.9441 11.4367 12.2197L12.4973 13.2803C12.7217 13.0559 12.9496 12.8619 13.181 12.6694C13.4029 12.4848 13.65 12.2843 13.8628 12.0789C14.3136 11.6438 14.717 11.0866 14.717 10.25H13.217ZM11.967 9C12.6573 9 13.217 9.55964 13.217 10.25H14.717C14.717 8.73122 13.4858 7.5 11.967 7.5V9ZM10.7563 9.93694C10.8951 9.39765 11.3856 9 11.967 9V7.5C10.6846 7.5 9.60891 8.37712 9.30367 9.56306L10.7563 9.93694ZM11.967 16.5H11.977V15H11.967V16.5ZM20.25 12C20.25 16.5563 16.5563 20.25 12 20.25V21.75C17.3848 21.75 21.75 17.3848 21.75 12H20.25ZM12 20.25C7.44365 20.25 3.75 16.5563 3.75 12H2.25C2.25 17.3848 6.61522 21.75 12 21.75V20.25ZM3.75 12C3.75 7.44365 7.44365 3.75 12 3.75V2.25C6.61522 2.25 2.25 6.61522 2.25 12H3.75ZM12 3.75C16.5563 3.75 20.25 7.44365 20.25 12H21.75C21.75 6.61522 17.3848 2.25 12 2.25V3.75Z" fill="#1B1E25"/>
</g>
</svg>
