<svg width="25" height="24" viewBox="0 0 25 24" fill="none" xmlns="http://www.w3.org/2000/svg">
<g id="circle-user">
<path id="Icon" fill-rule="evenodd" clip-rule="evenodd" d="M12.5 2C6.97715 2 2.5 6.47715 2.5 12C2.5 17.5228 6.97715 22 12.5 22C18.0228 22 22.5 17.5228 22.5 12C22.5 6.47715 18.0228 2 12.5 2ZM15.5 10C15.5 11.6569 14.1569 13 12.5 13C10.8431 13 9.5 11.6569 9.5 10C9.5 8.34315 10.8431 7 12.5 7C14.1569 7 15.5 8.34315 15.5 10ZM18.0633 17.7488C17.1729 15.5506 15.0175 14 12.4999 14C9.98232 14 7.8269 15.5506 6.93652 17.7488C8.37626 19.1424 10.3379 20 12.4999 20C14.6619 20 16.6236 19.1424 18.0633 17.7488Z" fill="#5148E7"/>
</g>
</svg>
