<svg width="16" height="16" viewBox="0 0 16 16" fill="none" xmlns="http://www.w3.org/2000/svg">
<path d="M8 9.33341C8.73637 9.33341 9.33333 8.73646 9.33333 8.00008C9.33333 7.2637 8.73637 6.66675 8 6.66675C7.26362 6.66675 6.66666 7.2637 6.66666 8.00008C6.66666 8.73646 7.26362 9.33341 8 9.33341Z" fill="#C9CDD2"/>
<path fill-rule="evenodd" clip-rule="evenodd" d="M1.00263 7.80029C1.93691 4.82569 4.71552 2.66675 8.00012 2.66675C11.2847 2.66675 14.0634 4.82572 14.9976 7.80034C15.0385 7.93039 15.0385 8.06983 14.9976 8.19987C14.0633 11.1745 11.2847 13.3334 8.00014 13.3334C4.71552 13.3334 1.9369 11.1744 1.00263 8.19982C0.961789 8.06978 0.961789 7.93034 1.00263 7.80029ZM5.33333 8.00008C5.33333 6.52732 6.52724 5.33341 8 5.33341C9.47275 5.33341 10.6667 6.52732 10.6667 8.00008C10.6667 9.47284 9.47275 10.6667 8 10.6667C6.52724 10.6667 5.33333 9.47284 5.33333 8.00008Z" fill="#C9CDD2"/>
</svg>
