<svg width="25" height="24" viewBox="0 0 25 24" fill="none" xmlns="http://www.w3.org/2000/svg">
<g id="house-smile">
<path id="Icon" d="M8.5 14.9999C8.5 14.9999 10.1 16.9999 12.5 16.9999C14.9 16.9999 16.5 14.9999 16.5 14.9999M3.5 14.5999V12.1301C3.5 10.9814 3.5 10.407 3.64805 9.87807C3.7792 9.40953 3.99473 8.96886 4.28405 8.57768C4.61067 8.13608 5.06404 7.78346 5.97078 7.07822L8.57078 5.056C9.97608 3.96298 10.6787 3.41648 11.4546 3.2064C12.1392 3.02104 12.8608 3.02104 13.5454 3.2064C14.3213 3.41648 15.0239 3.96299 16.4292 5.056L19.0292 7.07822C19.936 7.78346 20.3893 8.13608 20.7159 8.57768C21.0053 8.96886 21.2208 9.40953 21.3519 9.87807C21.5 10.407 21.5 10.9814 21.5 12.1301V14.5999C21.5 16.8401 21.5 17.9603 21.064 18.8159C20.6805 19.5685 20.0686 20.1805 19.316 20.564C18.4603 20.9999 17.3402 20.9999 15.1 20.9999H9.9C7.65979 20.9999 6.53969 20.9999 5.68404 20.564C4.93139 20.1805 4.31947 19.5685 3.93597 18.8159C3.5 17.9603 3.5 16.8401 3.5 14.5999Z" stroke="#1B1E25" stroke-width="2" stroke-linecap="round" stroke-linejoin="round"/>
</g>
</svg>
