<svg width="16" height="16" viewBox="0 0 16 16" fill="none" xmlns="http://www.w3.org/2000/svg">
<path d="M14.6475 4.6665H1.35256C1.37651 4.27429 1.43034 3.99603 1.55136 3.75852C1.74311 3.3822 2.04907 3.07624 2.42539 2.88449C2.85322 2.6665 3.41327 2.6665 4.53337 2.6665H11.4667C12.5868 2.6665 13.1469 2.6665 13.5747 2.88449C13.951 3.07624 14.257 3.3822 14.4487 3.75852C14.5697 3.99603 14.6236 4.27429 14.6475 4.6665Z" fill="#6265F0"/>
<path fill-rule="evenodd" clip-rule="evenodd" d="M1.33337 5.99984H14.6667V10.1332C14.6667 11.2533 14.6667 11.8133 14.4487 12.2412C14.257 12.6175 13.951 12.9234 13.5747 13.1152C13.1469 13.3332 12.5868 13.3332 11.4667 13.3332H4.53337C3.41327 13.3332 2.85322 13.3332 2.42539 13.1152C2.04907 12.9234 1.74311 12.6175 1.55136 12.2412C1.33337 11.8133 1.33337 11.2533 1.33337 10.1332V5.99984ZM5.91612 9.33317C6.6525 9.33317 7.24945 8.73622 7.24945 7.99984C7.24945 7.26346 6.6525 6.6665 5.91612 6.6665C5.17974 6.6665 4.58278 7.26346 4.58278 7.99984C4.58278 8.73622 5.17974 9.33317 5.91612 9.33317ZM8.29045 11.5763C8.29825 11.4258 8.23876 11.3386 8.11978 11.1644C7.63961 10.4613 6.83174 9.99984 5.91609 9.99984C5.00044 9.99984 4.19257 10.4613 3.71241 11.1644C3.59342 11.3386 3.53393 11.4258 3.54174 11.5763C3.54742 11.6859 3.62981 11.842 3.71713 11.9085C3.83705 11.9998 3.97648 11.9998 4.25534 11.9998H7.57685C7.8557 11.9998 7.99513 11.9998 8.11505 11.9085C8.20237 11.842 8.28476 11.6859 8.29045 11.5763ZM9.33337 7.99984C9.33337 7.63165 9.63185 7.33317 10 7.33317H12C12.3682 7.33317 12.6667 7.63165 12.6667 7.99984C12.6667 8.36803 12.3682 8.6665 12 8.6665H10C9.63185 8.6665 9.33337 8.36803 9.33337 7.99984ZM9.33337 10.6665C9.33337 10.2983 9.63185 9.99984 10 9.99984H12C12.3682 9.99984 12.6667 10.2983 12.6667 10.6665C12.6667 11.0347 12.3682 11.3332 12 11.3332H10C9.63185 11.3332 9.33337 11.0347 9.33337 10.6665Z" fill="#6265F0"/>
</svg>
