<svg width="16" height="16" viewBox="0 0 16 16" fill="none" xmlns="http://www.w3.org/2000/svg">
<path fill-rule="evenodd" clip-rule="evenodd" d="M7.99996 1.33301C5.03686 1.33301 2.66663 3.79835 2.66663 6.79967C2.66663 8.33069 3.34267 9.6709 4.25797 10.8934C5.02191 11.9137 5.99979 12.9107 6.97255 13.9026C7.15636 14.09 7.33999 14.2772 7.52196 14.4644C7.64748 14.5935 7.81989 14.6663 7.99996 14.6663C8.18003 14.6663 8.35244 14.5935 8.47796 14.4644C8.65993 14.2772 8.84356 14.09 9.02737 13.9026C10.0001 12.9107 10.978 11.9137 11.7419 10.8934C12.6573 9.6709 13.3333 8.33069 13.3333 6.79967C13.3333 3.79835 10.9631 1.33301 7.99996 1.33301ZM12 6.66634C12 8.87548 10.2091 10.6663 7.99996 10.6663C5.79082 10.6663 3.99996 8.87548 3.99996 6.66634C3.99996 4.4572 5.79082 2.66634 7.99996 2.66634C10.2091 2.66634 12 4.4572 12 6.66634Z" fill="#94979E"/>
<path d="M7.99996 8.66634C9.10453 8.66634 9.99996 7.77091 9.99996 6.66634C9.99996 5.56177 9.10453 4.66634 7.99996 4.66634C6.89539 4.66634 5.99996 5.56177 5.99996 6.66634C5.99996 7.77091 6.89539 8.66634 7.99996 8.66634Z" fill="#94979E"/>
</svg>
