<svg width="17" height="16" viewBox="0 0 17 16" fill="none" xmlns="http://www.w3.org/2000/svg">
<path d="M12.3924 2.66699H4.60768C4.25626 2.66698 3.95307 2.66697 3.70336 2.68737C3.43979 2.70891 3.17765 2.75645 2.92539 2.88498C2.56131 3.07049 2.26309 3.36291 2.07043 3.72252L3.0391 4.91587L3.04284 4.92046L3.06167 4.94315C3.07916 4.96404 3.10643 4.99617 3.14296 5.03792C3.21607 5.12148 3.326 5.24326 3.46874 5.39053C3.75495 5.68582 4.16913 6.07952 4.67912 6.47205C5.71526 7.26954 7.06645 8.00035 8.5004 8.00035C9.93436 8.00035 11.2855 7.26954 12.3217 6.47205C12.8317 6.07952 13.2459 5.68582 13.5321 5.39053C13.6748 5.24326 13.7847 5.12148 13.8579 5.03792C13.8944 4.99617 13.9216 4.96404 13.9391 4.94315L13.958 4.92046L13.9617 4.91587L13.9622 4.91526L13.9635 4.91366L14.9297 3.72269C14.7371 3.363 14.4388 3.07052 14.0747 2.88498C13.8224 2.75645 13.5603 2.70891 13.2967 2.68737C13.047 2.66697 12.7438 2.66698 12.3924 2.66699Z" fill="#94979E"/>
<path d="M15.1667 5.54689L15.0004 5.75183L14.9992 5.75332L14.9968 5.75637L14.9889 5.76603C14.9823 5.77403 14.9732 5.78511 14.9615 5.79908C14.9381 5.82702 14.9045 5.86651 14.8613 5.9159C14.7749 6.01464 14.6496 6.15327 14.4895 6.3185C14.1699 6.64821 13.7076 7.08784 13.1349 7.52865C12.0057 8.39782 10.3664 9.33368 8.5004 9.33368C6.63436 9.33368 4.99514 8.39782 3.86588 7.52865C3.29316 7.08784 2.8309 6.64821 2.51132 6.3185C2.35117 6.15327 2.22589 6.01463 2.1395 5.9159C2.09628 5.86651 2.06273 5.82702 2.03934 5.79908C2.02765 5.78511 2.01849 5.77403 2.01193 5.76603L2.00404 5.75637L2.00199 5.75383L1.83337 5.54611V10.5594C1.83336 10.9108 1.83335 11.214 1.85376 11.4637C1.87529 11.7272 1.92283 11.9894 2.05136 12.2416C2.24311 12.618 2.54907 12.9239 2.92539 13.1157C3.17765 13.2442 3.43979 13.2917 3.70336 13.3133C3.95306 13.3337 4.25621 13.3337 4.60761 13.3337H12.3924C12.7438 13.3337 13.047 13.3337 13.2967 13.3133C13.5603 13.2917 13.8224 13.2442 14.0747 13.1157C14.451 12.9239 14.757 12.618 14.9487 12.2416C15.0773 11.9894 15.1248 11.7272 15.1463 11.4637C15.1667 11.214 15.1667 10.9108 15.1667 10.5594V5.54689Z" fill="#94979E"/>
</svg>
