<svg width="16" height="16" viewBox="0 0 16 16" fill="none" xmlns="http://www.w3.org/2000/svg">
<path d="M7.335 10.6667C7.335 11.0339 7.63273 11.3317 8 11.3317C8.36727 11.3317 8.665 11.0339 8.665 10.6667H7.335ZM5.47676 9.5932C5.83538 9.51399 6.06189 9.15905 5.98268 8.80043C5.90347 8.4418 5.54854 8.21529 5.18991 8.2945L5.47676 9.5932ZM10.0017 4.66667C10.0017 5.77216 9.10549 6.66833 8 6.66833V7.99833C9.84003 7.99833 11.3317 6.5067 11.3317 4.66667H10.0017ZM8 6.66833C6.89451 6.66833 5.99833 5.77216 5.99833 4.66667H4.66833C4.66833 6.5067 6.15997 7.99833 8 7.99833V6.66833ZM5.99833 4.66667C5.99833 3.56118 6.89451 2.665 8 2.665V1.335C6.15997 1.335 4.66833 2.82664 4.66833 4.66667H5.99833ZM8 2.665C9.10549 2.665 10.0017 3.56118 10.0017 4.66667H11.3317C11.3317 2.82664 9.84003 1.335 8 1.335V2.665ZM7.335 7.33333V10.6667H8.665V7.33333H7.335ZM13.335 11.3333C13.335 11.4851 13.2685 11.6798 13.0468 11.9129C12.8217 12.1493 12.4647 12.3925 11.9726 12.6113C10.99 13.0479 9.58608 13.335 8 13.335V14.665C9.72763 14.665 11.3237 14.3551 12.5127 13.8266C13.1064 13.5628 13.628 13.2314 14.0102 12.8298C14.3957 12.4247 14.665 11.9179 14.665 11.3333H13.335ZM8 13.335C6.41392 13.335 5.00997 13.0479 4.02744 12.6113C3.53534 12.3925 3.17827 12.1493 2.95323 11.9129C2.73145 11.6798 2.665 11.4851 2.665 11.3333H1.335C1.335 11.9179 1.60433 12.4247 1.98979 12.8298C2.37198 13.2314 2.89359 13.5628 3.48728 13.8266C4.67633 14.3551 6.27237 14.665 8 14.665V13.335ZM2.665 11.3333C2.665 11.1208 2.8042 10.8077 3.30808 10.4537C3.80014 10.108 4.54313 9.79941 5.47676 9.5932L5.18991 8.2945C4.14791 8.52464 3.22424 8.88723 2.54353 9.36544C1.87465 9.83534 1.335 10.4988 1.335 11.3333H2.665ZM10.5232 9.5932C11.4569 9.79941 12.1999 10.108 12.6919 10.4537C13.1958 10.8077 13.335 11.1208 13.335 11.3333H14.665C14.665 10.4988 14.1253 9.83534 13.4565 9.36544C12.7758 8.88723 11.8521 8.52464 10.8101 8.2945L10.5232 9.5932Z" fill="#1B1E25"/>
</svg>
