<svg width="24" height="24" viewBox="0 0 24 24" fill="none" xmlns="http://www.w3.org/2000/svg">
<path d="M18.3284 8.32812L15.8941 5.89381C14.7061 4.70576 14.112 4.11173 13.427 3.88917C12.8245 3.69339 12.1755 3.69339 11.5729 3.88917C10.888 4.11173 10.2939 4.70576 9.10589 5.89381L7.5 7.4997M3.00024 20.9995L3.0477 20.6673C3.21561 19.4919 3.29956 18.9042 3.49053 18.3556C3.65999 17.8687 3.89149 17.4057 4.1793 16.978C4.50366 16.496 4.92343 16.0763 5.76299 15.2367L17.411 3.58872C18.192 2.80767 19.4584 2.80767 20.2394 3.58872C21.0205 4.36976 21.0205 5.63609 20.2394 6.41714L8.37768 18.2789C7.61604 19.0405 7.23522 19.4213 6.80144 19.7242C6.41642 19.993 6.00117 20.2157 5.56422 20.3877C5.07195 20.5814 4.544 20.688 3.48817 20.901L3.00024 20.9995Z" stroke="#1B1E25" stroke-width="1.5" stroke-linecap="round" stroke-linejoin="round"/>
</svg>
