<svg width="24" height="25" viewBox="0 0 24 25" fill="none" xmlns="http://www.w3.org/2000/svg">
<path d="M15.4998 6.00067L18.3282 8.8291M13 21.5H21M3 21.5004L3.04745 21.1683C3.21536 19.9929 3.29932 19.4052 3.49029 18.8565C3.65975 18.3697 3.89124 17.9067 4.17906 17.479C4.50341 16.997 4.92319 16.5772 5.76274 15.7377L17.4107 4.08969C18.1918 3.30865 19.4581 3.30864 20.2392 4.08969C21.0202 4.87074 21.0202 6.13707 20.2392 6.91812L8.37744 18.7798C7.61579 19.5415 7.23497 19.9223 6.8012 20.2252C6.41618 20.494 6.00093 20.7167 5.56398 20.8887C5.07171 21.0824 4.54375 21.1889 3.48793 21.402L3 21.5004Z" stroke="#1B1E25" stroke-width="1.5" stroke-linecap="round" stroke-linejoin="round"/>
</svg>
