<svg width="16" height="16" viewBox="0 0 16 16" fill="none" xmlns="http://www.w3.org/2000/svg">
<path d="M8.74044 1.33714C8.3745 1.29649 8.0449 1.56019 8.00424 1.92612C7.96359 2.29206 8.22729 2.62167 8.59322 2.66232C9.79576 2.79592 10.9171 3.33443 11.7732 4.18944C12.6293 5.04445 13.1692 6.16514 13.3043 7.36751C13.3454 7.7334 13.6754 7.99668 14.0413 7.95556C14.4072 7.91445 14.6704 7.58451 14.6293 7.21862C14.4604 5.71567 13.7855 4.3148 12.7154 3.24604C11.6453 2.17727 10.2436 1.50413 8.74044 1.33714Z" fill="#94979E"/>
<path d="M8.7945 4.01207C8.43312 3.94156 8.08301 4.17736 8.0125 4.53874C7.942 4.90011 8.17779 5.25022 8.53917 5.32073C9.0601 5.42236 9.53884 5.67713 9.91414 6.05243C10.2894 6.42772 10.5442 6.90647 10.6458 7.4274C10.7163 7.78877 11.0665 8.02457 11.4278 7.95406C11.7892 7.88356 12.025 7.53345 11.9545 7.17207C11.802 6.39068 11.4199 5.67256 10.8569 5.10962C10.294 4.54668 9.57588 4.16452 8.7945 4.01207Z" fill="#94979E"/>
<path d="M4.81409 7.88061C4.62123 8.1139 4.42841 8.34714 4.23724 8.58144C5.10388 9.99704 6.29107 11.1394 7.74799 11.9557C7.93734 11.7685 8.12716 11.5818 8.31698 11.3951C8.71309 11.0054 9.10923 10.6157 9.5012 10.222C9.7168 10.0055 9.93326 9.78809 10.2041 9.66204C10.44 9.55221 10.6984 9.49918 10.9586 9.50717C11.2572 9.51635 11.5417 9.63091 11.8252 9.74502C11.999 9.81498 12.1749 9.88214 12.3511 9.94942C12.7506 10.1019 13.1516 10.255 13.5332 10.4427C13.7027 10.5261 13.8752 10.6303 14.0264 10.7895C14.2476 11.0223 14.3968 11.3141 14.456 11.6297C14.4966 11.8455 14.48 12.0464 14.4484 12.2326C14.3708 12.6892 14.2498 13.1412 14.1293 13.5913C14.0784 13.7816 14.0276 13.9715 13.9802 14.1613C13.906 14.4581 13.6393 14.6663 13.3334 14.6663C11.3666 14.6663 9.31288 14.2852 7.55881 13.3643C5.55503 12.3603 3.93002 10.8008 2.85117 8.8504C1.7842 6.99773 1.33337 4.78728 1.33337 2.66635C1.33337 2.36045 1.54156 2.0938 1.83833 2.01959L3.17127 1.68631C3.39302 1.63086 3.5945 1.58048 3.76695 1.55117C3.95314 1.51953 4.15402 1.50298 4.36979 1.54349C4.68543 1.60276 4.97723 1.75195 5.21008 1.97314C5.36926 2.12434 5.47345 2.29688 5.55681 2.46634C5.75701 2.87334 5.92007 3.30122 6.0825 3.72748C6.1547 3.91695 6.22677 4.10609 6.30193 4.29293C6.40223 4.54225 6.50306 4.79293 6.52116 5.05853C6.53696 5.29028 6.50413 5.52279 6.42478 5.74111C6.33386 5.99132 6.16756 6.20427 6.00216 6.41608C5.61555 6.91115 5.21473 7.396 4.81409 7.88061Z" fill="#94979E"/>
</svg>
