<svg width="20" height="20" viewBox="0 0 20 20" fill="none" xmlns="http://www.w3.org/2000/svg">
<path opacity="0.14" d="M14.1667 15.8333C14.1667 16.7538 14.9129 17.5 15.8333 17.5H6.5C5.09987 17.5 4.3998 17.5 3.86502 17.2275C3.39462 16.9878 3.01217 16.6054 2.77248 16.135C2.5 15.6002 2.5 14.9001 2.5 13.5V4.79758C2.5 4.04308 2.5 3.66584 2.6585 3.44707C2.79676 3.25623 3.00936 3.13286 3.24364 3.1075C3.51223 3.07842 3.83977 3.26559 4.49485 3.63992L4.75515 3.78866C4.99627 3.92644 5.11682 3.99533 5.24486 4.02231C5.35815 4.04618 5.47518 4.04618 5.58847 4.02231C5.71651 3.99533 5.83707 3.92644 6.07819 3.78866L7.67181 2.87802C7.91293 2.74023 8.03349 2.67134 8.16153 2.64437C8.27482 2.6205 8.39185 2.6205 8.50514 2.64437C8.63318 2.67134 8.75373 2.74023 8.99485 2.87802L10.5885 3.78866C10.8296 3.92644 10.9502 3.99533 11.0782 4.02231C11.1915 4.04618 11.3085 4.04618 11.4218 4.02231C11.5498 3.99533 11.6704 3.92643 11.9115 3.78866L12.1718 3.63992C12.8269 3.26559 13.1544 3.07842 13.423 3.1075C13.6573 3.13286 13.8699 3.25623 14.0082 3.44707C14.1667 3.66584 14.1667 4.04308 14.1667 4.79758V15.8333Z" fill="#61646B"/>
<path d="M14.1667 10.8333H17.5V15.8333C17.5 16.7538 16.7538 17.5 15.8333 17.5M14.1667 10.8333V15.8333C14.1667 16.7538 14.9129 17.5 15.8333 17.5M14.1667 10.8333V4.79758C14.1667 4.04308 14.1667 3.66584 14.0082 3.44707C13.8699 3.25623 13.6573 3.13286 13.423 3.1075C13.1544 3.07842 12.8269 3.26559 12.1718 3.63992L11.9115 3.78866C11.6704 3.92644 11.5498 3.99533 11.4218 4.02231C11.3085 4.04618 11.1915 4.04618 11.0782 4.02231C10.9502 3.99533 10.8296 3.92644 10.5885 3.78866L8.99485 2.87802C8.75373 2.74023 8.63318 2.67134 8.50514 2.64437C8.39185 2.6205 8.27482 2.6205 8.16153 2.64437C8.03349 2.67134 7.91293 2.74023 7.67181 2.87802L6.07819 3.78866C5.83707 3.92644 5.71651 3.99533 5.58847 4.02231C5.47518 4.04618 5.35815 4.04618 5.24486 4.02231C5.11682 3.99533 4.99627 3.92644 4.75515 3.78866L4.49485 3.63992C3.83977 3.26559 3.51223 3.07842 3.24364 3.1075C3.00936 3.13286 2.79676 3.25623 2.6585 3.44707C2.5 3.66584 2.5 4.04308 2.5 4.79758V13.5C2.5 14.9001 2.5 15.6002 2.77248 16.135C3.01217 16.6054 3.39462 16.9878 3.86502 17.2275C4.3998 17.5 5.09987 17.5 6.5 17.5H15.8333M5.83333 10.8333H7.5M5.83333 7.50001H10.8333M5.83333 14.1667H7.5M10.8333 14.1667H10.8417M10.8333 10.8333H10.8417" stroke="#61646B" stroke-width="1.5" stroke-linecap="round" stroke-linejoin="round"/>
</svg>
