<svg width="8" height="8" viewBox="0 0 8 8" fill="none" xmlns="http://www.w3.org/2000/svg">
<g clip-path="url(#clip0_459_11231)">
<path fill-rule="evenodd" clip-rule="evenodd" d="M3.77768 0.885602C3.91769 0.816128 4.08214 0.816128 4.22216 0.885602C4.34568 0.946892 4.4101 1.05459 4.44104 1.11003C4.47449 1.16999 4.50876 1.2469 4.543 1.32376C4.54465 1.32745 4.54629 1.33114 4.54794 1.33483L5.14696 2.67869L6.62223 2.8344C6.7059 2.84321 6.78963 2.85204 6.85699 2.86532C6.91928 2.87761 7.04161 2.9056 7.13807 3.00414C7.24741 3.11583 7.29823 3.27223 7.27543 3.42686C7.25531 3.56328 7.17279 3.65783 7.12962 3.70438C7.08293 3.75473 7.02038 3.81108 6.95787 3.86739L5.85588 4.8605L6.16368 6.31168C6.18115 6.39398 6.19863 6.47634 6.20681 6.54451C6.21437 6.60754 6.22555 6.73254 6.16164 6.85473C6.08921 6.99324 5.95616 7.08989 5.80205 7.11599C5.6661 7.13901 5.55067 7.08974 5.49306 7.06307C5.43076 7.03423 5.35784 6.99216 5.28496 6.95011L3.99992 6.20893L2.71487 6.95011C2.642 6.99216 2.56908 7.03423 2.50678 7.06307C2.44916 7.08974 2.33374 7.13901 2.19778 7.11599C2.04367 7.08989 1.91063 6.99323 1.83819 6.85473C1.77429 6.73254 1.78547 6.60754 1.79303 6.54451C1.80121 6.47634 1.81869 6.39397 1.83616 6.31167L2.14396 4.8605L1.05099 3.87552C1.04798 3.87281 1.04498 3.87011 1.04197 3.8674C0.979459 3.81108 0.916905 3.75473 0.870219 3.70438C0.827052 3.65783 0.744531 3.56328 0.724411 3.42686C0.701605 3.27223 0.752422 3.11583 0.861763 3.00414C0.958225 2.9056 1.08056 2.87761 1.14285 2.86532C1.21021 2.85204 1.29394 2.84321 1.37761 2.8344C1.38163 2.83397 1.38566 2.83355 1.38968 2.83312L2.85287 2.67869L3.4519 1.33483C3.45354 1.33114 3.45519 1.32745 3.45684 1.32375C3.49108 1.2469 3.52534 1.16999 3.5588 1.11003C3.58973 1.05459 3.65416 0.946892 3.77768 0.885602Z" fill="white"/>
</g>
<defs>
<clipPath id="clip0_459_11231">
<rect width="8" height="8" fill="white"/>
</clipPath>
</defs>
</svg>
