<svg width="24" height="24" viewBox="0 0 24 24" fill="none" xmlns="http://www.w3.org/2000/svg">
<path opacity="0.14" d="M3 11.8C3 11.0665 3 10.493 3.02721 10.0263C3.06233 9.4241 3.14276 8.99959 3.32698 8.63803C3.6146 8.07354 4.07354 7.6146 4.63803 7.32698C5.27976 7 6.11984 7 7.8 7H16.2C17.8802 7 18.7202 7 19.362 7.32698C19.9265 7.6146 20.3854 8.07354 20.673 8.63803C20.8572 8.99959 20.9377 9.4241 20.9728 10.0263C21 10.493 21 11.0665 21 11.8V16.2C21 17.8802 21 18.7202 20.673 19.362C20.3854 19.9265 19.9265 20.3854 19.362 20.673C18.7202 21 17.8802 21 16.2 21H7.8C6.11984 21 5.27976 21 4.63803 20.673C4.07354 20.3854 3.6146 19.9265 3.32698 19.362C3 18.7202 3 17.8802 3 16.2V11.8Z" fill="black"/>
<path d="M11.17 2.25H12.83C13.365 2.25 13.81 2.25 14.175 2.28C14.555 2.31 14.911 2.378 15.248 2.55C15.766 2.814 16.186 3.234 16.45 3.752C16.622 4.089 16.69 4.445 16.72 4.825C16.75 5.19 16.75 5.635 16.75 6.17V6.25C17.33 6.252 17.818 6.26 18.232 6.293C18.778 6.338 19.258 6.433 19.702 6.659C20.408 7.018 20.982 7.592 21.342 8.298C21.596 8.797 21.684 9.344 21.722 9.983C21.75 10.471 21.75 11.063 21.75 11.779V16.232C21.75 17.045 21.75 17.701 21.707 18.232C21.662 18.778 21.567 19.258 21.341 19.702C20.982 20.408 20.408 20.982 19.702 21.342C19.258 21.568 18.778 21.662 18.232 21.707C17.701 21.75 17.045 21.75 16.232 21.75H7.768C6.955 21.75 6.299 21.75 5.768 21.707C5.222 21.662 4.742 21.567 4.298 21.341C3.592 20.982 3.018 20.408 2.658 19.702C2.432 19.258 2.338 18.778 2.293 18.232C2.25 17.701 2.25 17.045 2.25 16.232V11.778C2.25 11.063 2.25 10.471 2.278 9.983C2.316 9.344 2.404 8.797 2.658 8.298C3.018 7.592 3.592 7.018 4.298 6.658C4.742 6.432 5.222 6.338 5.768 6.293C6.261 6.26 6.756 6.246 7.25 6.25V6.17C7.25 5.635 7.25 5.19 7.28 4.825C7.31 4.445 7.378 4.089 7.55 3.752C7.814 3.234 8.234 2.814 8.752 2.55C9.089 2.378 9.445 2.31 9.825 2.28C10.19 2.25 10.635 2.25 11.17 2.25ZM7.8 7.75C6.948 7.75 6.353 7.75 5.89 7.788C5.437 7.825 5.176 7.895 4.979 7.995C4.555 8.211 4.211 8.555 3.995 8.979C3.907 9.151 3.845 9.37 3.805 9.721C4.224 10.091 5.092 10.806 6.262 11.497C7.811 12.411 9.83 13.25 12 13.25C14.171 13.25 16.19 12.411 17.738 11.497C18.61 10.982 19.432 10.387 20.195 9.721C20.155 9.371 20.093 9.151 20.005 8.979C19.789 8.555 19.445 8.211 19.022 7.995C18.824 7.895 18.563 7.825 18.109 7.788C17.647 7.751 17.052 7.75 16.2 7.75H7.8ZM20.25 11.612C19.777 11.972 19.186 12.384 18.5 12.789C16.83 13.775 14.543 14.75 12 14.75C9.457 14.75 7.17 13.775 5.5 12.789C4.894 12.431 4.31 12.038 3.75 11.612V16.2C3.75 17.052 3.75 17.647 3.788 18.11C3.825 18.563 3.895 18.824 3.995 19.022C4.211 19.445 4.555 19.789 4.979 20.005C5.176 20.105 5.437 20.175 5.891 20.212C6.353 20.249 6.948 20.25 7.8 20.25H16.2C17.052 20.25 17.647 20.25 18.11 20.212C18.563 20.174 18.824 20.105 19.022 20.005C19.445 19.789 19.789 19.445 20.005 19.022C20.105 18.824 20.175 18.563 20.212 18.109C20.249 17.647 20.25 17.052 20.25 16.2V11.612ZM15.25 6.2C15.25 5.627 15.249 5.243 15.225 4.947C15.202 4.66 15.16 4.523 15.114 4.433C14.994 4.197 14.803 4.006 14.568 3.886C14.477 3.84 14.34 3.798 14.052 3.775C13.757 3.75 13.372 3.75 12.8 3.75H11.2C10.627 3.75 10.243 3.751 9.947 3.775C9.66 3.798 9.523 3.84 9.433 3.886C9.197 4.006 9.006 4.197 8.886 4.433C8.84 4.523 8.798 4.66 8.775 4.947C8.75 5.243 8.75 5.628 8.75 6.2V6.25H15.25V6.2Z" fill="black"/>
</svg>
