<svg width="24" height="24" viewBox="0 0 24 24" fill="none" xmlns="http://www.w3.org/2000/svg">
<path opacity="0.14" d="M3 4.6C3 4.03995 3 3.75992 3.10899 3.54601C3.20487 3.35785 3.35785 3.20487 3.54601 3.10899C3.75992 3 4.03995 3 4.6 3H13.4C13.9601 3 14.2401 3 14.454 3.10899C14.6422 3.20487 14.7951 3.35785 14.891 3.54601C15 3.75992 15 4.03995 15 4.6V7H19.4C19.9601 7 20.2401 7 20.454 7.10899C20.6422 7.20487 20.7951 7.35785 20.891 7.54601C21 7.75992 21 8.03995 21 8.6C21 10.2765 21 16.4457 21 19.4011C21 19.9604 21 20.2401 20.891 20.454C20.7951 20.6422 20.6422 20.7951 20.454 20.891C20.2401 21 19.9601 21 19.4 21H11V18C11 16.8954 10.1046 16 9 16C7.89543 16 7 16.8954 7 18V21H3.00002C3.00002 21 3 7.16057 3 4.6Z" fill="black"/>
<path fill-rule="evenodd" clip-rule="evenodd" d="M4.57378 2.25C4.5825 2.25 4.59124 2.25 4.6 2.25L13.4262 2.25C13.6837 2.24998 13.9202 2.24997 14.1179 2.26612C14.331 2.28353 14.5642 2.32339 14.7945 2.44074C15.1238 2.60852 15.3915 2.87624 15.5593 3.20552C15.6766 3.43583 15.7165 3.669 15.7339 3.88213C15.75 4.07981 15.75 4.31629 15.75 4.57377L15.75 6.25L19.4262 6.25C19.6837 6.24998 19.9202 6.24997 20.1179 6.26612C20.331 6.28353 20.5642 6.32339 20.7945 6.44074C21.1238 6.60852 21.3915 6.87624 21.5593 7.20552C21.6766 7.43583 21.7165 7.669 21.7339 7.88213C21.75 8.07981 21.75 8.31629 21.75 8.57377V21C21.75 21.4142 21.4142 21.75 21 21.75H3C2.58579 21.75 2.25 21.4142 2.25 21V4.6C2.25 4.59124 2.25 4.5825 2.25 4.57378C2.24998 4.3163 2.24997 4.07982 2.26612 3.88213C2.28353 3.669 2.32339 3.43583 2.44074 3.20552C2.60852 2.87624 2.87624 2.60852 3.20552 2.44074C3.43583 2.32339 3.669 2.28353 3.88213 2.26612C4.07982 2.24997 4.3163 2.24998 4.57378 2.25ZM7.75 20.25H10.25V18C10.25 17.3096 9.69036 16.75 9 16.75C8.30965 16.75 7.75 17.3096 7.75 18V20.25ZM11.75 20.25V18C11.75 16.4812 10.5188 15.25 9 15.25C7.48122 15.25 6.25 16.4812 6.25 18V20.25H3.75V4.6C3.75 4.3076 3.75059 4.13341 3.76114 4.00428C3.76757 3.92547 3.77607 3.89234 3.77883 3.88347C3.80235 3.83883 3.83883 3.80235 3.88346 3.77883C3.89234 3.77607 3.92547 3.76757 4.00428 3.76114C4.13341 3.75059 4.3076 3.75 4.6 3.75H13.4C13.6924 3.75 13.8666 3.75059 13.9957 3.76114C14.0745 3.76757 14.1077 3.77607 14.1165 3.77883C14.1612 3.80235 14.1977 3.83882 14.2212 3.88346C14.2239 3.89234 14.2324 3.92546 14.2389 4.00428C14.2494 4.13341 14.25 4.3076 14.25 4.6V20.25H11.75ZM15.75 20.25H20.25V8.6C20.25 8.3076 20.2494 8.13341 20.2389 8.00428C20.2324 7.92546 20.2239 7.89233 20.2212 7.88346C20.1977 7.83882 20.1612 7.80235 20.1165 7.77883C20.1077 7.77607 20.0745 7.76757 19.9957 7.76114C19.8666 7.75059 19.6924 7.75 19.4 7.75H15.75V20.25ZM20.1191 7.77973C20.1191 7.77975 20.1185 7.77957 20.1175 7.77914ZM20.2203 7.88088C20.2203 7.88084 20.2205 7.88131 20.2208 7.88238ZM14.2203 3.88088C14.2203 3.88085 14.2205 3.88132 14.2208 3.88236ZM14.1191 3.77973C14.1191 3.77974 14.1186 3.77957 14.1176 3.77918ZM3.88088 3.77973C3.88085 3.77972 3.88132 3.77952 3.88239 3.77917ZM3.77917 3.88239C3.77952 3.88132 3.77972 3.88085 3.77973 3.88088ZM5.25 7C5.25 6.58579 5.58579 6.25 6 6.25H7C7.41422 6.25 7.75 6.58579 7.75 7C7.75 7.41422 7.41422 7.75 7 7.75H6C5.58579 7.75 5.25 7.41422 5.25 7ZM10.25 7C10.25 6.58579 10.5858 6.25 11 6.25H12C12.4142 6.25 12.75 6.58579 12.75 7C12.75 7.41422 12.4142 7.75 12 7.75H11C10.5858 7.75 10.25 7.41422 10.25 7ZM5.25 10C5.25 9.58579 5.58579 9.25 6 9.25H7C7.41422 9.25 7.75 9.58579 7.75 10C7.75 10.4142 7.41422 10.75 7 10.75H6C5.58579 10.75 5.25 10.4142 5.25 10ZM10.25 10C10.25 9.58579 10.5858 9.25 11 9.25H12C12.4142 9.25 12.75 9.58579 12.75 10C12.75 10.4142 12.4142 10.75 12 10.75H11C10.5858 10.75 10.25 10.4142 10.25 10ZM17.25 11C17.25 10.5858 17.5858 10.25 18 10.25H18.01C18.4242 10.25 18.76 10.5858 18.76 11C18.76 11.4142 18.4242 11.75 18.01 11.75H18C17.5858 11.75 17.25 11.4142 17.25 11ZM5.25 13C5.25 12.5858 5.58579 12.25 6 12.25H7C7.41422 12.25 7.75 12.5858 7.75 13C7.75 13.4142 7.41422 13.75 7 13.75H6C5.58579 13.75 5.25 13.4142 5.25 13ZM10.25 13C10.25 12.5858 10.5858 12.25 11 12.25H12C12.4142 12.25 12.75 12.5858 12.75 13C12.75 13.4142 12.4142 13.75 12 13.75H11C10.5858 13.75 10.25 13.4142 10.25 13ZM17.25 14C17.25 13.5858 17.5858 13.25 18 13.25H18.01C18.4242 13.25 18.76 13.5858 18.76 14C18.76 14.4142 18.4242 14.75 18.01 14.75H18C17.5858 14.75 17.25 14.4142 17.25 14ZM17.25 17C17.25 16.5858 17.5858 16.25 18 16.25H18.01C18.4242 16.25 18.76 16.5858 18.76 17C18.76 17.4142 18.4242 17.75 18.01 17.75H18C17.5858 17.75 17.25 17.4142 17.25 17Z" fill="black"/>
</svg>
