<svg width="24" height="24" viewBox="0 0 24 24" fill="none" xmlns="http://www.w3.org/2000/svg">
<path opacity="0.14" d="M4 11L3.99677 11.0194C3.60626 11.0434 3.32887 11.0973 3.09202 11.218C2.71569 11.4097 2.40973 11.7157 2.21799 12.092C2 12.5198 2 13.0799 2 14.2V15.4C2 15.9601 2 16.2401 2.10899 16.454C2.20487 16.6422 2.35785 16.7951 2.54601 16.891C2.75992 17 3.03995 17 3.6 17C3.82091 17 3.99571 16.8193 4.0346 16.6018C4.20909 15.6263 5.02268 15 6 15C7.10457 15 8 15.8 8 17H16C16 15.8 16.8954 15 18 15C19.1046 15 20 15.8 20 17H20.8C20.9858 17 21.0787 17 21.1564 16.9877C21.5843 16.9199 21.9199 16.5843 21.9877 16.1564C22 16.0787 22 15.9858 22 15.8C22 15.0568 22 14.6852 21.9508 14.3743C21.7054 12.8254 20.5829 11.5789 19.1034 11.155L19 11H4Z" fill="black"/>
<path d="M22.692 14.257C22.75 14.627 22.75 15.054 22.75 15.724V15.837C22.75 15.983 22.75 16.134 22.728 16.273C22.609 17.021 22.022 17.608 21.274 17.727C21.135 17.749 20.984 17.749 20.838 17.749H20.646C20.31 18.932 19.23 19.749 18 19.749C16.769 19.749 15.689 18.932 15.353 17.749H8.646C8.31 18.932 7.23 19.749 6 19.749C4.769 19.749 3.689 18.932 3.353 17.749C3.182 17.748 3.022 17.744 2.882 17.733C2.669 17.715 2.436 17.676 2.206 17.558C1.876 17.39 1.609 17.123 1.441 16.794C1.323 16.563 1.284 16.33 1.266 16.117C1.25 15.919 1.25 15.683 1.25 15.425V14.169C1.25 13.634 1.25 13.189 1.28 12.824C1.31 12.444 1.378 12.088 1.55 11.75C1.814 11.233 2.235 10.813 2.753 10.55C2.942 10.455 3.143 10.386 3.35 10.345L3.597 8.859C3.712 8.171 3.806 7.613 3.916 7.163C4.03 6.696 4.175 6.292 4.42 5.923C4.811 5.334 5.361 4.868 6.006 4.578C6.41 4.398 6.833 4.321 7.311 4.285C7.774 4.25 8.34 4.25 9.037 4.25H12.542C13.375 4.25 13.95 4.249 14.485 4.412C14.956 4.555 15.395 4.79 15.775 5.103C16.208 5.458 16.526 5.937 16.988 6.629L17.049 6.721L19.582 10.521C21.226 11.101 22.419 12.535 22.692 14.257ZM18 15.75C17.31 15.75 16.75 16.31 16.75 17C16.75 17.69 17.31 18.25 18 18.25C18.69 18.25 19.25 17.69 19.25 17C19.25 16.31 18.69 15.75 18 15.75ZM6 15.75C5.31 15.75 4.75 16.31 4.75 17C4.75 17.69 5.31 18.25 6 18.25C6.69 18.25 7.25 17.69 7.25 17C7.25 16.31 6.69 15.75 6 15.75ZM9.25 10.25V5.75H9.066C8.333 5.75 7.824 5.75 7.424 5.78C7.034 5.81 6.803 5.865 6.62 5.947C6.233 6.121 5.903 6.401 5.668 6.754C5.557 6.921 5.465 7.14 5.372 7.52C5.276 7.909 5.192 8.41 5.072 9.134L4.885 10.25H9.25ZM20.646 16.25H20.8L20.998 16.249L21.041 16.247C21.147 16.23 21.23 16.147 21.247 16.041L21.249 15.998L21.25 15.8C21.25 15.028 21.248 14.73 21.21 14.492C20.99 13.101 19.899 12.01 18.508 11.79C18.27 11.752 17.972 11.75 17.2 11.75H5.2C4.628 11.75 4.243 11.75 3.947 11.775C3.66 11.798 3.523 11.84 3.433 11.886C3.198 12.006 3.006 12.197 2.886 12.432C2.84 12.523 2.798 12.66 2.775 12.947C2.751 13.243 2.75 13.627 2.75 14.2V15.4C2.75 15.692 2.75 15.867 2.761 15.996C2.763 16.036 2.769 16.077 2.779 16.116C2.802 16.161 2.839 16.197 2.883 16.221C2.923 16.231 2.963 16.237 3.004 16.239C3.092 16.246 3.201 16.249 3.354 16.249C3.691 15.067 4.771 14.251 6 14.251C7.23 14.252 8.31 15.067 8.646 16.25H15.353C15.689 15.067 16.769 14.25 18 14.25C19.23 14.25 20.31 15.067 20.646 16.25ZM14.048 5.847C13.754 5.757 13.417 5.75 12.431 5.75H10.75V10.25H17.599L15.8 7.553C15.253 6.733 15.06 6.457 14.822 6.262C14.593 6.074 14.33 5.933 14.047 5.847H14.048Z" fill="black"/>
</svg>
