<svg width="24" height="24" viewBox="0 0 24 24" fill="none" xmlns="http://www.w3.org/2000/svg">
<path opacity="0.14" d="M14 9L9.5 11L7 9.88889V21L20 21L22 18L20 12L14 9Z" fill="black"/>
<path d="M10.47 6.47C10.763 6.178 11.237 6.178 11.53 6.47L11.538 6.477C11.822 6.771 11.818 7.239 11.528 7.528C11.239 7.818 10.771 7.821 10.477 7.537L10.47 7.53C10.178 7.237 10.178 6.763 10.47 6.47ZM7.46998 6.47C7.76298 6.178 8.23698 6.178 8.52998 6.47L8.53698 6.477C8.73798 6.664 8.81998 6.946 8.75198 7.211C8.68498 7.477 8.47698 7.685 8.21098 7.752C7.94598 7.82 7.66398 7.738 7.47698 7.537L7.46998 7.53C7.17798 7.237 7.17798 6.763 7.46998 6.47ZM4.56098 2.392C4.75598 2.251 5.00798 2.212 5.23698 2.288L8.12198 3.25H10.878L13.763 2.288C13.992 2.212 14.243 2.25 14.439 2.391C14.634 2.532 14.75 2.759 14.75 3V8.536L20.335 11.329C20.513 11.418 20.649 11.574 20.712 11.763L22.712 17.763C22.785 17.983 22.752 18.224 22.624 18.416L20.624 21.416C20.485 21.625 20.251 21.75 20 21.75H3.99998C3.80098 21.75 3.61098 21.671 3.46998 21.53L1.46998 19.53C1.17798 19.237 1.17798 18.763 1.46998 18.47L2.93998 17L1.46998 15.53C1.17798 15.237 1.17798 14.763 1.46998 14.47L3.46998 12.47C3.76598 12.195 4.22598 12.203 4.51198 12.488C4.79698 12.774 4.80498 13.234 4.52998 13.53L3.05998 15L4.52998 16.47C4.82198 16.763 4.82198 17.237 4.52998 17.53L3.05998 19L4.30998 20.25H6.24998V10.376L4.69498 9.686C4.42398 9.565 4.24998 9.297 4.24998 9V3C4.24998 2.759 4.36598 2.533 4.56098 2.392ZM7.75098 20.25H10.251V15C10.251 14.586 10.587 14.25 11.001 14.25C11.415 14.25 11.751 14.586 11.751 15V19.2L15.516 15.467C15.657 15.328 15.847 15.25 16.045 15.25H18C18.414 15.25 18.75 15.586 18.75 16C18.75 16.414 18.414 16.75 18 16.75H16.352L12.822 20.25H19.599L21.172 17.89L19.387 12.532L13.981 9.829L9.80498 11.685C9.61098 11.771 9.38898 11.771 9.19498 11.685L7.75098 11.043V20.25ZM9.49998 10.179L13.25 8.513V4.041L11.237 4.712C11.161 4.737 11.081 4.75 11 4.75H7.99998C7.91898 4.749 7.83898 4.736 7.76298 4.71L5.74998 4.04V8.513L7.28998 9.197C7.29998 9.201 7.30998 9.205 7.31998 9.21L9.49998 10.179Z" fill="black"/>
</svg>
