<svg width="24" height="24" viewBox="0 0 24 24" fill="none" xmlns="http://www.w3.org/2000/svg">
<path opacity="0.14" d="M12.109 3.54601C12 3.75992 12 4.03995 12 4.6V6H13.8C14.9201 6 15.4802 6 15.908 6.21799C16.2843 6.40973 16.5903 6.71569 16.782 7.09202C17 7.51984 17 8.0799 17 9.2V14.8C17 15.9201 17 16.4802 16.782 16.908C16.5903 17.2843 16.2843 17.5903 15.908 17.782C15.4802 18 14.9201 18 13.8 18H12V19.4C12 19.9601 12 20.2401 12.109 20.454C12.2049 20.6422 12.3578 20.7951 12.546 20.891C12.7599 21 13.0399 21 13.6 21H19.4C19.9601 21 20.2401 21 20.454 20.891C20.6422 20.7951 20.7951 20.6422 20.891 20.454C21 20.2401 21 19.9601 21 19.4V4.6C21 4.03995 21 3.75992 20.891 3.54601C20.7951 3.35785 20.6422 3.20487 20.454 3.10899C20.2401 3 19.9601 3 19.4 3H13.6C13.0399 3 12.7599 3 12.546 3.10899C12.3578 3.20487 12.2049 3.35785 12.109 3.54601Z" fill="black"/>
<path fill-rule="evenodd" clip-rule="evenodd" d="M13.5738 2.25H19.4262C19.6837 2.24998 19.9202 2.24997 20.1179 2.26612C20.331 2.28353 20.5642 2.32339 20.7945 2.44074C21.1238 2.60852 21.3915 2.87624 21.5593 3.20552C21.6766 3.43583 21.7165 3.669 21.7339 3.88213C21.75 4.07981 21.75 4.31629 21.75 4.57377V19.4262C21.75 19.6837 21.75 19.9202 21.7339 20.1179C21.7165 20.331 21.6766 20.5642 21.5593 20.7945C21.3915 21.1238 21.1238 21.3915 20.7945 21.5593C20.5642 21.6766 20.331 21.7165 20.1179 21.7339C19.9202 21.75 19.6837 21.75 19.4262 21.75H16C15.5858 21.75 15.25 21.4142 15.25 21C15.25 20.5858 15.5858 20.25 16 20.25H19.4C19.6924 20.25 19.8666 20.2494 19.9957 20.2389C20.0745 20.2324 20.1077 20.2239 20.1165 20.2212C20.1612 20.1977 20.1977 20.1612 20.2212 20.1165C20.2239 20.1077 20.2324 20.0745 20.2389 19.9957C20.2494 19.8666 20.25 19.6924 20.25 19.4V4.6C20.25 4.3076 20.2494 4.13341 20.2389 4.00428C20.2324 3.92547 20.2239 3.89234 20.2212 3.88347C20.1977 3.83882 20.1612 3.80234 20.1165 3.77883C20.1077 3.77607 20.0745 3.76757 19.9957 3.76114C19.8666 3.75059 19.6924 3.75 19.4 3.75H13.6C13.3076 3.75 13.1334 3.75059 13.0043 3.76114C12.9255 3.76757 12.8923 3.77607 12.8835 3.77883C12.8388 3.80235 12.8023 3.83882 12.7788 3.88346C12.7761 3.89234 12.7676 3.92546 12.7611 4.00428C12.7506 4.13341 12.75 4.3076 12.75 4.6V5.25L13.8304 5.25C14.3646 5.24999 14.8104 5.24998 15.1747 5.27974C15.5546 5.31078 15.9112 5.37789 16.2485 5.54973C16.7659 5.81339 17.1866 6.23408 17.4503 6.75153C17.6221 7.08879 17.6892 7.44545 17.7203 7.82533C17.75 8.18956 17.75 8.6354 17.75 9.16955V14.8305C17.75 15.3646 17.75 15.8104 17.7203 16.1747C17.6892 16.5546 17.6221 16.9112 17.4503 17.2485C17.1866 17.7659 16.7659 18.1866 16.2485 18.4503C15.9112 18.6221 15.5546 18.6892 15.1747 18.7203C14.8104 18.75 14.3646 18.75 13.8305 18.75H10.75V20.25H13C13.4142 20.25 13.75 20.5858 13.75 21C13.75 21.4142 13.4142 21.75 13 21.75H7C6.58579 21.75 6.25 21.4142 6.25 21C6.25 20.5858 6.58579 20.25 7 20.25H9.25V18.75H6.16955C5.6354 18.75 5.18956 18.75 4.82533 18.7203C4.44545 18.6892 4.08879 18.6221 3.75153 18.4503C3.23408 18.1866 2.81338 17.7659 2.54973 17.2485C2.37789 16.9112 2.31078 16.5546 2.27974 16.1747C2.24998 15.8104 2.24999 15.3646 2.25 14.8304V9.16957C2.24999 8.63541 2.24998 8.18957 2.27974 7.82533C2.31078 7.44545 2.37789 7.08879 2.54973 6.75153C2.81338 6.23408 3.23408 5.81339 3.75153 5.54973C4.08879 5.37789 4.44545 5.31078 4.82533 5.27974C5.18957 5.24998 5.63542 5.24999 6.16957 5.25L11.25 5.25L11.25 4.57377C11.25 4.31629 11.25 4.07981 11.2661 3.88213C11.2835 3.669 11.3234 3.43583 11.4407 3.20552C11.6085 2.87624 11.8762 2.60852 12.2055 2.44074C12.4358 2.32339 12.669 2.28353 12.8821 2.26612C13.0798 2.24997 13.3163 2.24998 13.5738 2.25ZM6.2 6.75C5.62757 6.75 5.24336 6.75059 4.94748 6.77476C4.66036 6.79822 4.52307 6.8401 4.43251 6.88624C4.19731 7.00609 4.00608 7.19731 3.88624 7.43251C3.8401 7.52308 3.79822 7.66036 3.77476 7.94748C3.75058 8.24336 3.75 8.62757 3.75 9.2V14.8C3.75 15.3724 3.75058 15.7566 3.77476 16.0525C3.79822 16.3396 3.8401 16.4769 3.88624 16.5675C4.00608 16.8027 4.19731 16.9939 4.43251 17.1138C4.52307 17.1599 4.66036 17.2018 4.94748 17.2252C5.24336 17.2494 5.62757 17.25 6.2 17.25H13.8C14.3724 17.25 14.7566 17.2494 15.0525 17.2252C15.3396 17.2018 15.4769 17.1599 15.5675 17.1138C15.8027 16.9939 15.9939 16.8027 16.1138 16.5675C16.1599 16.4769 16.2018 16.3396 16.2252 16.0525C16.2494 15.7566 16.25 15.3724 16.25 14.8V9.2C16.25 8.62757 16.2494 8.24336 16.2252 7.94748C16.2018 7.66036 16.1599 7.52308 16.1138 7.43251C15.9939 7.19731 15.8027 7.00609 15.5675 6.88624C15.4769 6.8401 15.3396 6.79822 15.0525 6.77476C14.7566 6.75059 14.3724 6.75 13.8 6.75H6.2ZM12.7797 3.88088C12.7797 3.88091 12.7796 3.88143 12.7792 3.88236ZM12.8809 3.77973C12.8808 3.77972 12.8813 3.77953 12.8824 3.77918ZM20.1191 3.77973C20.1191 3.77974 20.1186 3.77956 20.1176 3.77918ZM20.2203 3.88088C20.2203 3.88085 20.2205 3.88132 20.2208 3.88236ZM20.1191 20.2203C20.1192 20.2203 20.1187 20.2205 20.1176 20.2208Z" fill="black"/>
</svg>
