<svg width="24" height="24" viewBox="0 0 24 24" fill="none" xmlns="http://www.w3.org/2000/svg">
<circle opacity="0.14" cx="12" cy="12" r="9" fill="black"/>
<path fill-rule="evenodd" clip-rule="evenodd" d="M12 3.75C7.44365 3.75 3.75 7.44365 3.75 12C3.75 16.5563 7.44365 20.25 12 20.25C16.5563 20.25 20.25 16.5563 20.25 12C20.25 7.44365 16.5563 3.75 12 3.75ZM2.25 12C2.25 6.61522 6.61522 2.25 12 2.25C17.3848 2.25 21.75 6.61522 21.75 12C21.75 17.3848 17.3848 21.75 12 21.75C6.61522 21.75 2.25 17.3848 2.25 12ZM8.10156 10.35C8.10156 9.65962 8.66121 9.09998 9.35156 9.09998C10.0419 9.09998 10.6016 9.65962 10.6016 10.35C10.6016 11.0403 10.0419 11.6 9.35156 11.6C8.6612 11.6 8.10156 11.0403 8.10156 10.35ZM15.5 10.75C15.1259 10.75 14.7647 10.8734 14.4385 11.1085C14.1024 11.3506 13.6337 11.2745 13.3915 10.9385C13.1494 10.6024 13.2255 10.1337 13.5615 9.89154C14.1178 9.49065 14.7812 9.25 15.5 9.25C16.2188 9.25 16.8822 9.49065 17.4385 9.89154C17.7745 10.1337 17.8506 10.6024 17.6085 10.9385C17.3663 11.2745 16.8976 11.3506 16.5615 11.1085C16.2353 10.8734 15.8741 10.75 15.5 10.75ZM7.54957 14.4003C7.88076 14.1516 8.35091 14.2184 8.59967 14.5496C9.37632 15.5835 10.6104 16.25 12.0004 16.25C13.3903 16.25 14.6244 15.5835 15.4011 14.5496C15.6498 14.2184 16.12 14.1516 16.4512 14.4003C16.7824 14.6491 16.8492 15.1192 16.6004 15.4504C15.5526 16.8454 13.882 17.75 12.0004 17.75C10.1187 17.75 8.44809 16.8454 7.40033 15.4504C7.15156 15.1192 7.21838 14.6491 7.54957 14.4003Z" fill="black"/>
</svg>
