<svg width="24" height="24" viewBox="0 0 24 24" fill="none" xmlns="http://www.w3.org/2000/svg">
<path opacity="0.14" d="M19 3.9V14.7C19 14.7 18.125 15.6 15.5 15.6C12.875 15.6 11.125 13.8 8.5 13.8C5.875 13.8 5 14.7 5 14.7V3.90002C5 3.90002 5.875 3 8.5 3C11.125 3 12.875 4.8 15.5 4.8C18.125 4.8 19 3.9 19 3.9Z" fill="black"/>
<path fill-rule="evenodd" clip-rule="evenodd" d="M5.48026 2.75642C6.1271 2.49029 7.10036 2.25 8.5 2.25C9.96136 2.25 11.1727 2.7485 12.2412 3.18826C12.256 3.19432 12.2707 3.20037 12.2854 3.20641C13.3935 3.66234 14.3565 4.05 15.5 4.05C16.7254 4.05 17.5021 3.84028 17.949 3.65641C18.1732 3.56416 18.3182 3.4769 18.3981 3.42208C18.4382 3.39457 18.4625 3.3749 18.4725 3.36639C18.474 3.36509 18.4753 3.36405 18.4761 3.36328C18.689 3.15547 19.0054 3.09272 19.2821 3.20509C19.565 3.31992 19.75 3.59473 19.75 3.9V14.7C19.75 14.8952 19.6739 15.0828 19.5378 15.2228L19 14.7C19.5378 15.2228 19.5374 15.2232 19.537 15.2236L19.5362 15.2244L19.5345 15.2261L19.5309 15.2297L19.5227 15.2379C19.5185 15.242 19.514 15.2464 19.5089 15.2512C19.5066 15.2534 19.5043 15.2556 19.5018 15.2579C19.4859 15.2728 19.4661 15.2906 19.442 15.3109C19.394 15.3517 19.3294 15.4023 19.2464 15.4592C19.0803 15.5731 18.8424 15.7109 18.5198 15.8436C17.8729 16.1098 16.8996 16.35 15.5 16.35C14.0386 16.35 12.8273 15.8515 11.7588 15.4118L11.7146 15.3936C10.6065 14.9377 9.64349 14.55 8.5 14.55C7.27464 14.55 6.49789 14.7598 6.05099 14.9436C5.92735 14.9945 5.82782 15.0439 5.75 15.0871V21C5.75 21.4142 5.41421 21.75 5 21.75C4.58579 21.75 4.25 21.4142 4.25 21V14.7008C4.25 14.7003 4.25 14.6997 4.25 14.6991V3.90002C4.25 3.70477 4.32614 3.51722 4.46225 3.37722L5 3.90002C4.46225 3.37722 4.46263 3.37683 4.46302 3.37643L4.46382 3.37561L4.46549 3.37391L4.46908 3.37028L4.47734 3.36208C4.48332 3.35621 4.49027 3.34953 4.49822 3.34211C4.5141 3.32725 4.53394 3.30942 4.55796 3.28907C4.60602 3.24837 4.67065 3.19772 4.75358 3.14085C4.91972 3.02693 5.1576 2.88918 5.48026 2.75642ZM5.75 4.28706V13.4542C6.38801 13.2318 7.28276 13.05 8.5 13.05C9.96136 13.05 11.1727 13.5485 12.2412 13.9883L12.2854 14.0065C13.3935 14.4624 14.3565 14.85 15.5 14.85C16.7254 14.85 17.5021 14.6403 17.949 14.4564C18.0726 14.4056 18.1722 14.3562 18.25 14.313V5.14584C17.612 5.36827 16.7172 5.55 15.5 5.55C14.0386 5.55 12.8273 5.0515 11.7588 4.61174C11.744 4.60568 11.7293 4.59963 11.7146 4.59359C10.6065 4.13766 9.64349 3.75 8.5 3.75C7.27464 3.75 6.4979 3.95973 6.051 4.1436C5.92736 4.19447 5.82782 4.24382 5.75 4.28706Z" fill="black"/>
</svg>
