<svg width="24" height="24" viewBox="0 0 24 24" fill="none" xmlns="http://www.w3.org/2000/svg">
<path opacity="0.14" fill-rule="evenodd" clip-rule="evenodd" d="M6.32698 7.63803C6 8.27976 6 9.11984 6 10.8V13.2C6 14.8802 6 15.7202 6.32698 16.362C6.6146 16.9265 7.07354 17.3854 7.63803 17.673C8.27976 18 9.11984 18 10.8 18H13.2C14.8802 18 15.7202 18 16.362 17.673C16.9265 17.3854 17.3854 16.9265 17.673 16.362C18 15.7202 18 14.8802 18 13.2V10.8C18 9.11984 18 8.27976 17.673 7.63803C17.3854 7.07354 16.9265 6.6146 16.362 6.32698C15.7202 6 14.8802 6 13.2 6H10.8C9.11984 6 8.27976 6 7.63803 6.32698C7.07354 6.6146 6.6146 7.07354 6.32698 7.63803ZM14 10H10V14H14V10Z" fill="black"/>
<path fill-rule="evenodd" clip-rule="evenodd" d="M8 2.25C8.41421 2.25 8.75 2.58579 8.75 3V5.2949C8.75617 5.29438 8.76235 5.29387 8.76853 5.29336C9.29944 5.24999 9.95505 5.24999 10.7679 5.25H11.25V3C11.25 2.58579 11.5858 2.25 12 2.25C12.4142 2.25 12.75 2.58579 12.75 3V5.25H13.2321C14.0449 5.24999 14.7006 5.24999 15.2315 5.29336C15.2377 5.29387 15.2438 5.29438 15.25 5.2949V3C15.25 2.58579 15.5858 2.25 16 2.25C16.4142 2.25 16.75 2.58579 16.75 3V5.68337C17.4181 6.03587 17.9641 6.58194 18.3166 7.25H21C21.4142 7.25 21.75 7.58579 21.75 8C21.75 8.41421 21.4142 8.75 21 8.75H18.7051C18.7056 8.75617 18.7061 8.76235 18.7066 8.76853C18.75 9.29944 18.75 9.95505 18.75 10.7679V11.25H21C21.4142 11.25 21.75 11.5858 21.75 12C21.75 12.4142 21.4142 12.75 21 12.75H18.75V13.2321C18.75 14.045 18.75 14.7006 18.7066 15.2315C18.7061 15.2377 18.7056 15.2438 18.7051 15.25H21C21.4142 15.25 21.75 15.5858 21.75 16C21.75 16.4142 21.4142 16.75 21 16.75H18.3166C17.9641 17.4181 17.4181 17.9641 16.75 18.3166V21C16.75 21.4142 16.4142 21.75 16 21.75C15.5858 21.75 15.25 21.4142 15.25 21V18.7051C15.2438 18.7056 15.2377 18.7061 15.2315 18.7066C14.7006 18.75 14.045 18.75 13.2321 18.75H12.75V21C12.75 21.4142 12.4142 21.75 12 21.75C11.5858 21.75 11.25 21.4142 11.25 21V18.75H10.7679C9.95505 18.75 9.29944 18.75 8.76853 18.7066C8.76235 18.7061 8.75617 18.7056 8.75 18.7051L8.75 21C8.75 21.4142 8.41421 21.75 8 21.75C7.58579 21.75 7.25 21.4142 7.25 21L7.25 18.3166C6.58194 17.9641 6.03587 17.4181 5.68337 16.75H3C2.58579 16.75 2.25 16.4142 2.25 16C2.25 15.5858 2.58579 15.25 3 15.25H5.2949C5.29438 15.2438 5.29387 15.2377 5.29336 15.2315C5.24999 14.7006 5.24999 14.0449 5.25 13.2321V12.75H3C2.58579 12.75 2.25 12.4142 2.25 12C2.25 11.5858 2.58579 11.25 3 11.25H5.25V10.7679C5.24999 9.95505 5.24999 9.29944 5.29336 8.76853C5.29387 8.76235 5.29438 8.75617 5.2949 8.75H3C2.58579 8.75 2.25 8.41421 2.25 8C2.25 7.58579 2.58579 7.25 3 7.25H5.68338C6.03587 6.58194 6.58194 6.03587 7.25 5.68338V3C7.25 2.58579 7.58579 2.25 8 2.25ZM8.20325 6.90471C8.11798 6.93133 8.0447 6.96151 7.97852 6.99524C7.55516 7.21095 7.21095 7.55516 6.99524 7.97852C6.96151 8.0447 6.93133 8.11798 6.90471 8.20325C6.90198 8.21294 6.89907 8.22254 6.89598 8.23206C6.84757 8.39691 6.81166 8.60574 6.78838 8.89068C6.75058 9.35331 6.75 9.94755 6.75 10.8V13.2C6.75 14.0525 6.75058 14.6467 6.78838 15.1093C6.81166 15.3943 6.84757 15.6031 6.89598 15.7679C6.89908 15.7775 6.90198 15.7871 6.9047 15.7967C6.93133 15.882 6.96151 15.9553 6.99524 16.0215C7.21095 16.4448 7.55516 16.789 7.97852 17.0048C8.04471 17.0385 8.11799 17.0687 8.20327 17.0953C8.21294 17.098 8.22254 17.1009 8.23205 17.104C8.3969 17.1524 8.60574 17.1883 8.89068 17.2116C9.35331 17.2494 9.94755 17.25 10.8 17.25H13.2C14.0525 17.25 14.6467 17.2494 15.1093 17.2116C15.3943 17.1883 15.6031 17.1524 15.768 17.104C15.7775 17.1009 15.7871 17.098 15.7967 17.0953C15.882 17.0687 15.9553 17.0385 16.0215 17.0048C16.4448 16.789 16.789 16.4448 17.0048 16.0215C17.0385 15.9553 17.0687 15.882 17.0953 15.7967C17.098 15.7871 17.1009 15.7775 17.104 15.768C17.1524 15.6031 17.1883 15.3943 17.2116 15.1093C17.2494 14.6467 17.25 14.0525 17.25 13.2V10.8C17.25 9.94755 17.2494 9.35331 17.2116 8.89068C17.1883 8.60573 17.1524 8.3969 17.104 8.23205C17.1009 8.22254 17.098 8.21294 17.0953 8.20327C17.0687 8.11799 17.0385 8.04471 17.0048 7.97852C16.789 7.55516 16.4448 7.21095 16.0215 6.99524C15.9553 6.96151 15.882 6.93133 15.7967 6.9047C15.7871 6.90198 15.7775 6.89908 15.7679 6.89598C15.6031 6.84757 15.3943 6.81166 15.1093 6.78838C14.6467 6.75058 14.0525 6.75 13.2 6.75H10.8C9.94755 6.75 9.35331 6.75058 8.89068 6.78838C8.60574 6.81166 8.39691 6.84757 8.23206 6.89598C8.22254 6.89907 8.21294 6.90198 8.20325 6.90471ZM9.25 10C9.25 9.58579 9.58579 9.25 10 9.25H14C14.4142 9.25 14.75 9.58579 14.75 10V14C14.75 14.4142 14.4142 14.75 14 14.75H10C9.58579 14.75 9.25 14.4142 9.25 14V10ZM10.75 10.75V13.25H13.25V10.75H10.75Z" fill="black"/>
</svg>
