<svg width="24" height="24" viewBox="0 0 24 24" fill="none" xmlns="http://www.w3.org/2000/svg">
<rect opacity="0.14" x="6" y="3" width="12" height="18" rx="2" fill="black"/>
<path fill-rule="evenodd" clip-rule="evenodd" d="M9.16957 2.25H14.8304C15.3646 2.24999 15.8104 2.24998 16.1747 2.27974C16.5546 2.31078 16.9112 2.37789 17.2485 2.54973C17.7659 2.81338 18.1866 3.23408 18.4503 3.75153C18.6221 4.08879 18.6892 4.44545 18.7203 4.82533C18.75 5.18956 18.75 5.6354 18.75 6.16955V17.8305C18.75 18.3646 18.75 18.8104 18.7203 19.1747C18.6892 19.5546 18.6221 19.9112 18.4503 20.2485C18.1866 20.7659 17.7659 21.1866 17.2485 21.4503C16.9112 21.6221 16.5546 21.6892 16.1747 21.7203C15.8104 21.75 15.3646 21.75 14.8305 21.75H9.16955C8.6354 21.75 8.18956 21.75 7.82533 21.7203C7.44545 21.6892 7.08879 21.6221 6.75153 21.4503C6.23408 21.1866 5.81338 20.7659 5.54973 20.2485C5.37789 19.9112 5.31078 19.5546 5.27974 19.1747C5.24998 18.8104 5.24999 18.3646 5.25 17.8304V6.16957C5.24999 5.63541 5.24998 5.18956 5.27974 4.82533C5.31078 4.44545 5.37789 4.08879 5.54973 3.75153C5.81338 3.23408 6.23408 2.81338 6.75153 2.54973C7.08879 2.37789 7.44545 2.31078 7.82533 2.27974C8.18956 2.24998 8.63541 2.24999 9.16957 2.25ZM7.94748 3.77476C7.66036 3.79822 7.52307 3.8401 7.43251 3.88624C7.19731 4.00608 7.00608 4.19731 6.88624 4.43251C6.8401 4.52307 6.79822 4.66036 6.77476 4.94748C6.75058 5.24336 6.75 5.62757 6.75 6.2V17.8C6.75 18.3724 6.75058 18.7566 6.77476 19.0525C6.79822 19.3396 6.8401 19.4769 6.88624 19.5675C7.00608 19.8027 7.19731 19.9939 7.43251 20.1138C7.52307 20.1599 7.66036 20.2018 7.94748 20.2252C8.24336 20.2494 8.62757 20.25 9.2 20.25H14.8C15.3724 20.25 15.7566 20.2494 16.0525 20.2252C16.3396 20.2018 16.4769 20.1599 16.5675 20.1138C16.8027 19.9939 16.9939 19.8027 17.1138 19.5675C17.1599 19.4769 17.2018 19.3396 17.2252 19.0525C17.2494 18.7566 17.25 18.3724 17.25 17.8V6.2C17.25 5.62757 17.2494 5.24336 17.2252 4.94748C17.2018 4.66036 17.1599 4.52307 17.1138 4.43251C16.9939 4.19731 16.8027 4.00608 16.5675 3.88624C16.4769 3.8401 16.3396 3.79822 16.0525 3.77476C15.7566 3.75058 15.3724 3.75 14.8 3.75H9.2C8.62757 3.75 8.24336 3.75058 7.94748 3.77476ZM10.25 18C10.25 17.5858 10.5858 17.25 11 17.25H13C13.4142 17.25 13.75 17.5858 13.75 18C13.75 18.4142 13.4142 18.75 13 18.75H11C10.5858 18.75 10.25 18.4142 10.25 18Z" fill="black"/>
</svg>
