<svg width="24" height="24" viewBox="0 0 24 24" fill="none" xmlns="http://www.w3.org/2000/svg">
<path opacity="0.14" d="M3 8.2C3 7.07989 3 6.51984 3.21799 6.09202C3.40973 5.71569 3.71569 5.40973 4.09202 5.21799C4.51984 5 5.0799 5 6.2 5H17.8C18.9201 5 19.4802 5 19.908 5.21799C20.2843 5.40973 20.5903 5.71569 20.782 6.09202C21 6.51984 21 7.0799 21 8.2V15.8C21 16.9201 21 17.4802 20.782 17.908C20.5903 18.2843 20.2843 18.5903 19.908 18.782C19.4802 19 18.9201 19 17.8 19H6.2C5.07989 19 4.51984 19 4.09202 18.782C3.71569 18.5903 3.40973 18.2843 3.21799 17.908C3 17.4802 3 16.9201 3 15.8V8.2Z" fill="black"/>
<path fill-rule="evenodd" clip-rule="evenodd" d="M6.16957 4.25H17.8304C18.3646 4.24999 18.8104 4.24998 19.1747 4.27974C19.5546 4.31078 19.9112 4.37789 20.2485 4.54973C20.7659 4.81338 21.1866 5.23408 21.4503 5.75153C21.6221 6.08879 21.6892 6.44545 21.7203 6.82533C21.75 7.18956 21.75 7.6354 21.75 8.16955V15.8305C21.75 16.3646 21.75 16.8104 21.7203 17.1747C21.6892 17.5546 21.6221 17.9112 21.4503 18.2485C21.1866 18.7659 20.7659 19.1866 20.2485 19.4503C19.9112 19.6221 19.5546 19.6892 19.1747 19.7203C18.8104 19.75 18.3646 19.75 17.8305 19.75H6.16955C5.6354 19.75 5.18956 19.75 4.82533 19.7203C4.44545 19.6892 4.08879 19.6221 3.75153 19.4503C3.23408 19.1866 2.81338 18.7659 2.54973 18.2485C2.37789 17.9112 2.31078 17.5546 2.27974 17.1747C2.24998 16.8104 2.24999 16.3646 2.25 15.8304V8.16957C2.24999 7.63541 2.24998 7.18956 2.27974 6.82533C2.31078 6.44545 2.37789 6.08879 2.54973 5.75153C2.81338 5.23408 3.23408 4.81338 3.75153 4.54973C4.08879 4.37789 4.44545 4.31078 4.82533 4.27974C5.18956 4.24998 5.63541 4.24999 6.16957 4.25ZM3.75 13.75V15.8C3.75 16.3724 3.75058 16.7566 3.77476 17.0525C3.79822 17.3396 3.8401 17.4769 3.88624 17.5675C4.00608 17.8027 4.19731 17.9939 4.43251 18.1138C4.52307 18.1599 4.66036 18.2018 4.94748 18.2252C5.24336 18.2494 5.62757 18.25 6.2 18.25H17.8C18.3724 18.25 18.7566 18.2494 19.0525 18.2252C19.3396 18.2018 19.4769 18.1599 19.5675 18.1138C19.8027 17.9939 19.9939 17.8027 20.1138 17.5675C20.1599 17.4769 20.2018 17.3396 20.2252 17.0525C20.2494 16.7566 20.25 16.3724 20.25 15.8V8.2C20.25 7.62757 20.2494 7.24336 20.2252 6.94748C20.2018 6.66036 20.1599 6.52307 20.1138 6.43251C19.9939 6.19731 19.8027 6.00608 19.5675 5.88624C19.4769 5.8401 19.3396 5.79822 19.0525 5.77476C18.7566 5.75058 18.3724 5.75 17.8 5.75H6.2C5.62757 5.75 5.24336 5.75058 4.94748 5.77476C4.66036 5.79822 4.52307 5.8401 4.43251 5.88624C4.19731 6.00608 4.00608 6.19731 3.88624 6.43251C3.8401 6.52307 3.79822 6.66036 3.77476 6.94748C3.75058 7.24336 3.75 7.62757 3.75 8.2V12.25H8.5C8.73607 12.25 8.95836 12.3611 9.1 12.55L9.74115 13.4049L11.2885 8.76283C11.3844 8.47505 11.6443 8.27339 11.9468 8.25189C12.2494 8.23038 12.5352 8.39327 12.6708 8.66459L14.4635 12.25H17C17.4142 12.25 17.75 12.5858 17.75 13C17.75 13.4142 17.4142 13.75 17 13.75H14C13.7159 13.75 13.4562 13.5895 13.3292 13.3354L12.1389 10.9549L10.7115 15.2372C10.6233 15.5018 10.3955 15.6956 10.1201 15.7403C9.84478 15.785 9.56738 15.6732 9.4 15.45L8.125 13.75H3.75Z" fill="black"/>
</svg>
