<svg width="24" height="24" viewBox="0 0 24 24" fill="none" xmlns="http://www.w3.org/2000/svg">
<g opacity="0.14">
<path d="M4.96733 3.50812L3 4.00002C3 7.27022 3.74856 10.2196 5.10583 12.7083C5.11069 12.7172 5.123 12.7184 5.1295 12.7106L8.15456 9.08666C8.46255 8.69067 8.61655 8.49267 8.69726 8.27061C8.76867 8.07411 8.79821 7.86486 8.784 7.65628C8.76793 7.42055 8.67477 7.18766 8.48846 6.72187L7.77776 4.94513C7.50204 4.25581 7.36417 3.91116 7.12635 3.68525C6.91678 3.48618 6.65417 3.3519 6.37009 3.29856C6.0477 3.23803 5.68758 3.32806 4.96733 3.50812Z" fill="black"/>
<path d="M20.4916 19.0324L20 21C16.9567 21 14.1913 20.3517 11.8164 19.1679C11.8056 19.1625 11.8033 19.148 11.8119 19.1395L14.8807 16.1191C15.2854 15.7144 15.4877 15.512 15.728 15.4002C15.9404 15.3013 16.1729 15.2536 16.4071 15.2608C16.672 15.2689 16.9377 15.3752 17.4691 15.5878L19.0546 16.222C19.7439 16.4977 20.0886 16.6356 20.3145 16.8734C20.5136 17.083 20.6478 17.3456 20.7012 17.6297C20.7617 17.952 20.6717 18.3122 20.4916 19.0324Z" fill="black"/>
</g>
<path d="M12.255 2.917C12.301 2.506 12.672 2.209 13.083 2.255C17.61 2.758 21.186 6.329 21.695 10.856C21.729 11.261 21.435 11.619 21.032 11.665C20.628 11.71 20.262 11.426 20.205 11.024C19.775 7.193 16.749 4.17 12.917 3.745C12.506 3.699 12.209 3.328 12.255 2.917ZM8.28 15.72C9.287 16.725 10.434 17.579 11.686 18.255L14.351 15.588L14.421 15.518C14.755 15.184 15.048 14.89 15.412 14.721C15.73 14.571 16.08 14.501 16.43 14.511C16.832 14.524 17.217 14.678 17.655 14.854C17.686 14.866 17.717 14.879 17.748 14.891L19.359 15.536C19.64 15.644 19.917 15.761 20.189 15.889C20.439 16.003 20.666 16.162 20.859 16.357C21.158 16.671 21.359 17.065 21.439 17.491C21.492 17.774 21.471 18.043 21.426 18.308C21.384 18.556 21.311 18.85 21.226 19.189L21.219 19.214L20.728 21.182C20.644 21.516 20.344 21.75 20 21.75C16.857 21.75 13.985 21.082 11.507 19.852C9.921 19.068 8.472 18.03 7.22 16.78C6.135 15.694 5.211 14.46 4.473 13.114C3.037 10.5 2.25 7.409 2.25 4C2.25 3.656 2.484 3.356 2.818 3.272L4.812 2.774C5.103 2.697 5.396 2.63 5.692 2.574C5.961 2.52 6.238 2.516 6.509 2.561C6.935 2.641 7.329 2.842 7.643 3.141C7.851 3.34 7.993 3.57 8.111 3.81C8.223 4.037 8.335 4.318 8.465 4.642L9.185 6.444L9.217 6.524C9.372 6.909 9.508 7.248 9.532 7.605C9.553 7.918 9.509 8.232 9.402 8.527C9.28 8.863 9.055 9.151 8.8 9.479L8.747 9.547L8.734 9.562L6.044 12.84C6.667 13.889 7.418 14.857 8.28 15.72ZM12.264 6.856C12.344 6.45 12.738 6.184 13.144 6.264C15.441 6.712 17.238 8.509 17.686 10.806C17.76 11.21 17.496 11.599 17.092 11.678C16.689 11.757 16.297 11.496 16.214 11.094C15.883 9.395 14.555 8.067 12.856 7.736C12.45 7.656 12.184 7.262 12.264 6.856ZM13.122 18.94C15.004 19.722 17.119 20.176 19.417 20.242L19.764 18.851C19.857 18.479 19.916 18.241 19.948 18.056C19.97 17.962 19.975 17.864 19.964 17.768C19.937 17.626 19.87 17.495 19.771 17.39C19.699 17.324 19.617 17.272 19.527 17.235C19.281 17.121 19.031 17.015 18.777 16.918L17.191 16.284C16.605 16.05 16.485 16.014 16.384 16.01C16.267 16.006 16.15 16.03 16.044 16.08C15.954 16.123 15.857 16.203 15.411 16.65L13.122 18.94ZM5.149 4.236L3.759 4.583C3.83 7.095 4.366 9.388 5.288 11.398L7.568 8.618C7.902 8.189 7.962 8.098 7.993 8.014C8.029 7.916 8.043 7.811 8.036 7.707C8.03 7.617 7.997 7.513 7.792 7L7.082 5.224C6.985 4.97 6.879 4.719 6.765 4.472C6.728 4.383 6.675 4.3 6.61 4.229C6.505 4.13 6.374 4.063 6.232 4.036C6.136 4.025 6.038 4.031 5.944 4.053C5.758 4.084 5.521 4.143 5.149 4.236Z" fill="black"/>
</svg>
