<svg width="24" height="24" viewBox="0 0 24 24" fill="none" xmlns="http://www.w3.org/2000/svg">
<path opacity="0.14" d="M21 14.8V10.2C21 9.07989 21 8.51984 20.782 8.09202C20.5903 7.71569 20.2843 7.40973 19.908 7.21799C19.4802 7 18.9201 7 17.8 7H17H7H6.2C5.0799 7 4.51984 7 4.09202 7.21799C3.71569 7.40973 3.40973 7.71569 3.21799 8.09202C3 8.51984 3 9.0799 3 10.2V14.8C3 15.9201 3 16.4802 3.21799 16.908C3.40973 17.2843 3.71569 17.5903 4.09202 17.782C4.51984 18 5.0799 18 6.2 18C6.64183 18 7 17.6418 7 17.2V16.6C7 16.0399 7 15.7599 7.10899 15.546C7.20487 15.3578 7.35785 15.2049 7.54601 15.109C7.75992 15 8.03995 15 8.6 15H15.4C15.9601 15 16.2401 15 16.454 15.109C16.6422 15.2049 16.7951 15.3578 16.891 15.546C17 15.7599 17 16.0399 17 16.6V17.2C17 17.6418 17.3582 18 17.8 18C18.9201 18 19.4802 18 19.908 17.782C20.2843 17.5903 20.5903 17.2843 20.782 16.908C21 16.4802 21 15.9201 21 14.8Z" fill="black"/>
<path fill-rule="evenodd" clip-rule="evenodd" d="M8.57378 2.25H15.4262C15.6837 2.24998 15.9202 2.24997 16.1179 2.26612C16.331 2.28353 16.5642 2.32339 16.7945 2.44074C17.1238 2.60852 17.3915 2.87624 17.5593 3.20552C17.6766 3.43583 17.7165 3.669 17.7339 3.88213C17.75 4.07981 17.75 4.31629 17.75 4.57377L17.75 6.25L17.8304 6.25C18.3646 6.24999 18.8104 6.24998 19.1747 6.27974C19.5546 6.31078 19.9112 6.37789 20.2485 6.54973C20.7659 6.81339 21.1866 7.23408 21.4503 7.75153C21.6221 8.08879 21.6892 8.44545 21.7203 8.82533C21.75 9.18956 21.75 9.6354 21.75 10.1695V14.8305C21.75 15.3646 21.75 15.8104 21.7203 16.1747C21.6892 16.5546 21.6221 16.9112 21.4503 17.2485C21.1866 17.7659 20.7659 18.1866 20.2485 18.4503C19.9112 18.6221 19.5546 18.6892 19.1747 18.7203C18.8104 18.75 18.3646 18.75 17.8305 18.75H17.75L17.75 19.4262C17.75 19.6837 17.75 19.9202 17.7339 20.1179C17.7165 20.331 17.6766 20.5642 17.5593 20.7945C17.3915 21.1238 17.1238 21.3915 16.7945 21.5593C16.5642 21.6766 16.331 21.7165 16.1179 21.7339C15.9202 21.75 15.6837 21.75 15.4262 21.75H8.57377C8.31629 21.75 8.07981 21.75 7.88213 21.7339C7.669 21.7165 7.43582 21.6766 7.20552 21.5593C6.87623 21.3915 6.60852 21.1238 6.44074 20.7945C6.32339 20.5642 6.28353 20.331 6.26612 20.1179C6.24996 19.9202 6.24998 19.6837 6.25 19.4262L6.25 18.75H6.16955C5.6354 18.75 5.18956 18.75 4.82533 18.7203C4.44545 18.6892 4.08879 18.6221 3.75153 18.4503C3.23408 18.1866 2.81338 17.7659 2.54973 17.2485C2.37789 16.9112 2.31078 16.5546 2.27974 16.1747C2.24998 15.8104 2.24999 15.3646 2.25 14.8304V10.1696C2.24999 9.63541 2.24998 9.18957 2.27974 8.82533C2.31078 8.44545 2.37789 8.08879 2.54973 7.75153C2.81338 7.23408 3.23408 6.81339 3.75153 6.54973C4.08879 6.37789 4.44545 6.31078 4.82533 6.27974C5.18957 6.24998 5.63542 6.24999 6.16957 6.25L6.25 6.25V4.6C6.25 4.59124 6.25 4.5825 6.25 4.57379C6.24998 4.3163 6.24996 4.07982 6.26612 3.88213C6.28353 3.669 6.32339 3.43583 6.44074 3.20552C6.60852 2.87624 6.87623 2.60852 7.20552 2.44074C7.43582 2.32339 7.669 2.28353 7.88213 2.26612C8.07981 2.24997 8.3163 2.24998 8.57378 2.25ZM7.75 6.25H16.25V4.6C16.25 4.3076 16.2494 4.13341 16.2389 4.00428C16.2324 3.92547 16.2239 3.89234 16.2212 3.88346C16.1977 3.83882 16.1612 3.80235 16.1165 3.77883C16.1077 3.77607 16.0745 3.76757 15.9957 3.76114C15.8666 3.75059 15.6924 3.75 15.4 3.75H8.6C8.3076 3.75 8.1334 3.75059 8.00428 3.76114C7.92547 3.76757 7.89234 3.77607 7.88346 3.77883C7.83882 3.80235 7.80234 3.83883 7.77882 3.88347C7.77607 3.89235 7.76757 3.92547 7.76113 4.00428C7.75058 4.13341 7.75 4.3076 7.75 4.6V6.25ZM7.77973 3.88088C7.77974 3.8809 7.77956 3.88144 7.77917 3.88239ZM7.88088 3.77973C7.88085 3.77972 7.88132 3.77953 7.88236 3.77918ZM16.1191 3.77973C16.1191 3.77974 16.1186 3.77957 16.1176 3.77918ZM16.2203 3.88088C16.2203 3.88085 16.2205 3.88132 16.2208 3.88236ZM7.75 19.4C7.75 19.6924 7.75058 19.8666 7.76113 19.9957C7.76757 20.0745 7.77607 20.1077 7.77882 20.1165C7.80234 20.1612 7.83882 20.1977 7.88346 20.2212C7.89233 20.2239 7.92546 20.2324 8.00428 20.2389C8.1334 20.2494 8.3076 20.25 8.6 20.25H15.4C15.6924 20.25 15.8666 20.2494 15.9957 20.2389C16.0745 20.2324 16.1077 20.2239 16.1165 20.2212C16.1612 20.1977 16.1977 20.1612 16.2212 20.1165C16.2239 20.1077 16.2324 20.0745 16.2389 19.9957C16.2494 19.8666 16.25 19.6924 16.25 19.4V16.6C16.25 16.3076 16.2494 16.1334 16.2389 16.0043C16.2324 15.9255 16.2239 15.8923 16.2212 15.8835C16.1977 15.8388 16.1612 15.8023 16.1165 15.7788C16.1077 15.7761 16.0745 15.7676 15.9957 15.7611C15.8666 15.7506 15.6924 15.75 15.4 15.75H8.6C8.3076 15.75 8.1334 15.7506 8.00428 15.7611C7.92547 15.7676 7.89234 15.7761 7.88346 15.7788C7.83882 15.8023 7.80234 15.8388 7.77882 15.8835C7.77607 15.8923 7.76757 15.9255 7.76113 16.0043C7.75058 16.1334 7.75 16.3076 7.75 16.6V19.4ZM7.77973 15.8809C7.77974 15.8809 7.77957 15.8814 7.77917 15.8824ZM7.88088 15.7797C7.88085 15.7797 7.88132 15.7795 7.88236 15.7792ZM16.1191 15.7797C16.1191 15.7797 16.1186 15.7796 16.1176 15.7792ZM16.2203 15.8809C16.2203 15.8808 16.2205 15.8813 16.2208 15.8824ZM17.75 17.25L17.75 16.5738C17.75 16.3163 17.75 16.0798 17.7339 15.8821C17.7165 15.669 17.6766 15.4358 17.5593 15.2055C17.3915 14.8762 17.1238 14.6085 16.7945 14.4407C16.5642 14.3234 16.331 14.2835 16.1179 14.2661C15.9202 14.25 15.6837 14.25 15.4262 14.25H8.57377C8.31629 14.25 8.07981 14.25 7.88213 14.2661C7.669 14.2835 7.43582 14.3234 7.20552 14.4407C6.87623 14.6085 6.60852 14.8762 6.44074 15.2055C6.32339 15.4358 6.28353 15.669 6.26612 15.8821C6.24996 16.0798 6.24998 16.3163 6.25 16.5738L6.25 17.25H6.2C5.62757 17.25 5.24336 17.2494 4.94748 17.2252C4.66036 17.2018 4.52307 17.1599 4.43251 17.1138C4.19731 16.9939 4.00608 16.8027 3.88624 16.5675C3.8401 16.4769 3.79822 16.3396 3.77476 16.0525C3.75058 15.7566 3.75 15.3724 3.75 14.8V10.2C3.75 9.62757 3.75058 9.24336 3.77476 8.94748C3.79822 8.66036 3.8401 8.52308 3.88624 8.43251C4.00608 8.19731 4.19731 8.00609 4.43251 7.88624C4.52307 7.8401 4.66036 7.79822 4.94748 7.77476C5.24336 7.75059 5.62757 7.75 6.2 7.75H17.8C18.3724 7.75 18.7566 7.75059 19.0525 7.77476C19.3396 7.79822 19.4769 7.8401 19.5675 7.88624C19.8027 8.00609 19.9939 8.19731 20.1138 8.43251C20.1599 8.52308 20.2018 8.66036 20.2252 8.94748C20.2494 9.24336 20.25 9.62757 20.25 10.2V14.8C20.25 15.3724 20.2494 15.7566 20.2252 16.0525C20.2018 16.3396 20.1599 16.4769 20.1138 16.5675C19.9939 16.8027 19.8027 16.9939 19.5675 17.1138C19.4769 17.1599 19.3396 17.2018 19.0525 17.2252C18.7566 17.2494 18.3724 17.25 17.8 17.25H17.75ZM16.1191 20.2203C16.1191 20.2203 16.1187 20.2205 16.1176 20.2208ZM7.88087 20.2203C7.88089 20.2203 7.88142 20.2204 7.88237 20.2208ZM7.77973 20.1191C7.77972 20.1192 7.77952 20.1187 7.77918 20.1176ZM6.25 11C6.25 10.5858 6.58579 10.25 7 10.25H7.01C7.42421 10.25 7.76 10.5858 7.76 11C7.76 11.4142 7.42421 11.75 7.01 11.75H7C6.58579 11.75 6.25 11.4142 6.25 11Z" fill="black"/>
</svg>
