<svg width="24" height="24" viewBox="0 0 24 24" fill="none" xmlns="http://www.w3.org/2000/svg">
<path opacity="0.14" d="M17 20V11L19 12.5L22 9L16 4H15.874C15.4299 5.72523 13.8638 7 12 7C10.1362 7 8.57006 5.72523 8.12602 4H8L2 9L5 12.5L7 11V20H17Z" fill="black"/>
<path fill-rule="evenodd" clip-rule="evenodd" d="M7.51986 3.42383C7.65465 3.31151 7.82455 3.25 8 3.25H16C16.1755 3.25 16.3454 3.31151 16.4801 3.42383L22.4801 8.42383C22.6343 8.55233 22.7306 8.73727 22.7474 8.93729C22.7642 9.1373 22.7001 9.3357 22.5694 9.48809L19.5694 12.9881C19.3122 13.2882 18.8662 13.3372 18.55 13.1L17.75 12.5V20C17.75 20.4142 17.4142 20.75 17 20.75H7C6.58579 20.75 6.25 20.4142 6.25 20V12.5L5.45 13.1C5.13379 13.3372 4.68779 13.2882 4.43056 12.9881L1.43056 9.48809C1.29993 9.3357 1.23584 9.1373 1.25263 8.93729C1.26941 8.73727 1.36567 8.55233 1.51986 8.42383L7.51986 3.42383ZM7.7719 5.16636L3.06436 9.08931L5.11215 11.4784L6.55 10.4C6.77727 10.2296 7.08132 10.2021 7.33541 10.3292C7.5895 10.4562 7.75 10.7159 7.75 11V19.25H16.25V11C16.25 10.7159 16.4105 10.4562 16.6646 10.3292C16.9187 10.2021 17.2227 10.2296 17.45 10.4L18.8879 11.4784L20.9356 9.08931L16.2281 5.16636C15.4407 6.70017 13.8436 7.75 12 7.75C10.1564 7.75 8.55931 6.70017 7.7719 5.16636ZM14.7393 4.75H9.26068C9.83841 5.65225 10.8499 6.25 12 6.25C13.1501 6.25 14.1616 5.65225 14.7393 4.75Z" fill="black"/>
</svg>
