<svg width="24" height="24" viewBox="0 0 24 24" fill="none" xmlns="http://www.w3.org/2000/svg">
<path opacity="0.14" d="M15 7H16.2C17.8802 7 18.7202 7 19.362 7.32698C19.9265 7.6146 20.3854 8.07354 20.673 8.63803C21 9.27976 21 10.1198 21 11.8V16.2C21 17.8802 21 18.7202 20.673 19.362C20.3854 19.9265 19.9265 20.3854 19.362 20.673C18.7202 21 17.8802 21 16.2 21H15V7Z" fill="black"/>
<path fill-rule="evenodd" clip-rule="evenodd" d="M6.41435 2.53148C6.67311 2.20803 7.14508 2.15559 7.46852 2.41435L12 6.03953L16.5315 2.41435C16.8549 2.15559 17.3269 2.20803 17.5857 2.53148C17.8444 2.85492 17.792 3.32689 17.4685 3.58565L14.1381 6.25H16.2321C17.0449 6.24999 17.7006 6.24998 18.2315 6.29336C18.7781 6.33802 19.2582 6.43238 19.7025 6.65872C20.4081 7.01825 20.9817 7.59192 21.3413 8.29753C21.5676 8.74175 21.662 9.22189 21.7066 9.76853C21.75 10.2994 21.75 10.955 21.75 11.7679V16.2321C21.75 17.045 21.75 17.7006 21.7066 18.2315C21.662 18.7781 21.5676 19.2582 21.3413 19.7025C20.9817 20.4081 20.4081 20.9817 19.7025 21.3413C19.2582 21.5676 18.7781 21.662 18.2315 21.7066C17.7006 21.75 17.045 21.75 16.2321 21.75H7.76788C6.95505 21.75 6.29944 21.75 5.76853 21.7066C5.2219 21.662 4.74175 21.5676 4.29754 21.3413C3.59193 20.9817 3.01825 20.4081 2.65873 19.7025C2.43239 19.2582 2.33803 18.7781 2.29336 18.2315C2.24999 17.7006 2.24999 17.0449 2.25 16.2321V11.7679C2.24999 10.9551 2.24999 10.2994 2.29336 9.76853C2.33803 9.22189 2.43239 8.74175 2.65873 8.29753C3.01825 7.59193 3.59193 7.01825 4.29754 6.65872C4.74175 6.43238 5.2219 6.33802 5.76853 6.29336C6.29944 6.24998 6.95506 6.24999 7.7679 6.25H9.86192L6.53148 3.58565C6.20803 3.32689 6.15559 2.85492 6.41435 2.53148ZM15.75 20.25H16.2C17.0525 20.25 17.6467 20.2494 18.1093 20.2116C18.5632 20.1745 18.824 20.1054 19.0215 20.0048C19.4448 19.789 19.789 19.4448 20.0048 19.0215C20.1054 18.824 20.1745 18.5632 20.2116 18.1093C20.2494 17.6467 20.25 17.0525 20.25 16.2V11.8C20.25 10.9475 20.2494 10.3533 20.2116 9.89068C20.1745 9.4368 20.1054 9.17604 20.0048 8.97852C19.789 8.55515 19.4448 8.21095 19.0215 7.99523C18.824 7.89459 18.5632 7.82546 18.1093 7.78838C17.6467 7.75058 17.0525 7.75 16.2 7.75H15.75V20.25ZM14.25 7.75V20.25H7.8C6.94755 20.25 6.35331 20.2494 5.89068 20.2116C5.4368 20.1745 5.17604 20.1054 4.97852 20.0048C4.55516 19.789 4.21095 19.4448 3.99524 19.0215C3.8946 18.824 3.82547 18.5632 3.78838 18.1093C3.75058 17.6467 3.75 17.0525 3.75 16.2V11.8C3.75 10.9475 3.75058 10.3533 3.78838 9.89068C3.82547 9.4368 3.8946 9.17604 3.99524 8.97852C4.21095 8.55515 4.55516 8.21095 4.97852 7.99523C5.17604 7.89459 5.4368 7.82546 5.89068 7.78838C6.35331 7.75058 6.94755 7.75 7.8 7.75H14.25ZM17.25 11C17.25 10.5858 17.5858 10.25 18 10.25H18.01C18.4242 10.25 18.76 10.5858 18.76 11C18.76 11.4142 18.4242 11.75 18.01 11.75H18C17.5858 11.75 17.25 11.4142 17.25 11ZM17.25 14C17.25 13.5858 17.5858 13.25 18 13.25H18.01C18.4242 13.25 18.76 13.5858 18.76 14C18.76 14.4142 18.4242 14.75 18.01 14.75H18C17.5858 14.75 17.25 14.4142 17.25 14ZM17.25 17C17.25 16.5858 17.5858 16.25 18 16.25H18.01C18.4242 16.25 18.76 16.5858 18.76 17C18.76 17.4142 18.4242 17.75 18.01 17.75H18C17.5858 17.75 17.25 17.4142 17.25 17Z" fill="black"/>
</svg>
